<svg width="27" height="27" viewBox="0 0 27 27" fill="none" xmlns="http://www.w3.org/2000/svg">
<path d="M3.29167 26.625C2.48958 26.625 1.80295 26.3394 1.23177 25.7682C0.66059 25.197 0.375 24.5104 0.375 23.7083V3.29167C0.375 2.48958 0.66059 1.80295 1.23177 1.23177C1.80295 0.66059 2.48958 0.375 3.29167 0.375H19.3333L26.625 7.66667V23.7083C26.625 24.5104 26.3394 25.197 25.7682 25.7682C25.197 26.3394 24.5104 26.625 23.7083 26.625H3.29167ZM3.29167 23.7083H23.7083V9.125H17.875V3.29167H3.29167V23.7083ZM6.20833 20.7917H20.7917V17.875H6.20833V20.7917ZM6.20833 9.125H13.5V6.20833H6.20833V9.125ZM6.20833 14.9583H20.7917V12.0417H6.20833V14.9583Z" fill="#B1BBC0"/>
</svg>
