<svg width="33" height="33" viewBox="0 0 33 33" fill="none" xmlns="http://www.w3.org/2000/svg">
<path d="M11.941 14.6544L21.0546 10.0977M21.059 22.9045L11.954 18.352M28.875 8.25C28.875 10.5282 27.0282 12.375 24.75 12.375C22.4718 12.375 20.625 10.5282 20.625 8.25C20.625 5.97183 22.4718 4.125 24.75 4.125C27.0282 4.125 28.875 5.97183 28.875 8.25ZM12.375 16.5C12.375 18.7782 10.5282 20.625 8.25 20.625C5.97183 20.625 4.125 18.7782 4.125 16.5C4.125 14.2218 5.97183 12.375 8.25 12.375C10.5282 12.375 12.375 14.2218 12.375 16.5ZM28.875 24.75C28.875 27.0282 27.0282 28.875 24.75 28.875C22.4718 28.875 20.625 27.0282 20.625 24.75C20.625 22.4718 22.4718 20.625 24.75 20.625C27.0282 20.625 28.875 22.4718 28.875 24.75Z" stroke="#4D00B5" stroke-width="2" stroke-linecap="round" stroke-linejoin="round"/>
</svg>
