<svg width="30" height="33" viewBox="0 0 30 33" fill="none" xmlns="http://www.w3.org/2000/svg">
<path d="M4.97283 32.6087C4.29348 30.8967 3.81794 29.1641 3.5462 27.4109C3.27446 25.6587 3.20652 23.8859 3.34239 22.0924C4.375 24.3207 5.95109 26.087 8.07065 27.3913C10.1902 28.6956 12.5 29.3478 15 29.3478C17.2826 29.3478 19.3478 28.8109 21.1957 27.737C23.0435 26.6641 24.6196 25.231 25.9239 23.4375C27.2283 21.644 28.2337 19.5853 28.9402 17.2614C29.6467 14.9386 30 12.5272 30 10.0272C30 8.31522 29.8842 6.62337 29.6527 4.95163C29.4223 3.28098 29.0217 1.63043 28.4511 0H25.0272C25.6793 1.68478 26.1478 3.41033 26.4326 5.17663C26.7185 6.94293 26.7935 8.72282 26.6576 10.5163C25.5978 8.26087 24.0147 6.48804 21.9082 5.19783C19.8027 3.90652 17.5 3.26087 15 3.26087C12.7174 3.26087 10.6522 3.79728 8.80435 4.87011C6.95652 5.94402 5.38044 7.37065 4.07609 9.15C2.77174 10.9304 1.76631 12.9821 1.05979 15.3049C0.353264 17.6288 0 20.0543 0 22.5815C0 24.2935 0.115217 25.9848 0.345652 27.6554C0.577173 29.3272 0.978262 30.9783 1.54891 32.6087H4.97283ZM15 26.087C12.2826 26.087 9.97283 25.1359 8.07065 23.2337C6.16848 21.3315 5.21739 19.0217 5.21739 16.3043C5.21739 13.587 6.16848 11.2772 8.07065 9.375C9.97283 7.47283 12.2826 6.52174 15 6.52174C17.7174 6.52174 20.0272 7.47283 21.9293 9.375C23.8315 11.2772 24.7826 13.587 24.7826 16.3043C24.7826 19.0217 23.8315 21.3315 21.9293 23.2337C20.0272 25.1359 17.7174 26.087 15 26.087ZM15 22.8261C13.2065 22.8261 11.6712 22.1875 10.394 20.9103C9.11685 19.6332 8.47826 18.0978 8.47826 16.3043C8.47826 14.5109 9.11685 12.9755 10.394 11.6984C11.6712 10.4212 13.2065 9.78261 15 9.78261C16.7935 9.78261 18.3288 10.4212 19.606 11.6984C20.8832 12.9755 21.5217 14.5109 21.5217 16.3043C21.5217 18.0978 20.8832 19.6332 19.606 20.9103C18.3288 22.1875 16.7935 22.8261 15 22.8261ZM15 19.5652C15.8967 19.5652 16.6641 19.2457 17.3022 18.6065C17.9413 17.9685 18.2609 17.2011 18.2609 16.3043C18.2609 15.4076 17.9413 14.6397 17.3022 14.0005C16.6641 13.3625 15.8967 13.0435 15 13.0435C14.1033 13.0435 13.3353 13.3625 12.6962 14.0005C12.0582 14.6397 11.7391 15.4076 11.7391 16.3043C11.7391 17.2011 12.0582 17.9685 12.6962 18.6065C13.3353 19.2457 14.1033 19.5652 15 19.5652Z" fill="#4D00B5"/>
</svg>
