<svg width="100" height="100" viewBox="0 0 100 100" fill="none" xmlns="http://www.w3.org/2000/svg">
<circle cx="50.1595" cy="49.7317" r="48.0247" fill="#4D00B5"/>
<path d="M34.1633 24.6552C32.2904 21.658 28.2935 20.7096 25.6714 23.0793C21.4582 26.8869 18.1744 31.6518 16.1201 37.0098C13.2975 44.3713 12.9495 52.4519 15.1286 60.0289C17.3077 67.6059 21.8954 74.267 28.1975 79.0044C34.4996 83.7418 42.1732 86.2976 50.0573 86.2853C57.9414 86.2729 65.607 83.693 71.8943 78.9359C78.1815 74.1788 82.7482 67.5033 84.9036 59.9195C87.0589 52.3357 86.6855 44.2563 83.8399 36.9036C81.7688 31.5521 78.4701 26.7975 74.2449 23.0031C71.6154 20.6416 67.6215 21.6026 65.758 24.6057C63.8946 27.6088 64.9069 31.5092 67.2977 34.1121C69.2701 36.2594 70.8381 38.7691 71.9039 41.523C73.7458 46.2822 73.9875 51.5119 72.5924 56.4207C71.1973 61.3295 68.2414 65.6504 64.1718 68.7295C60.1022 71.8087 55.1405 73.4786 50.0373 73.4866C44.9341 73.4946 39.9671 71.8403 35.8879 68.7739C31.8087 65.7075 28.8392 61.3959 27.4287 56.4915C26.0182 51.5871 26.2435 46.3567 28.0705 41.5917C29.1276 38.8345 30.6878 36.3199 32.6534 34.1664C35.036 31.556 36.0362 27.6525 34.1633 24.6552Z" fill="white"/>
<rect x="44.3965" y="8.10938" width="11.099" height="32.8702" rx="5.54952" fill="white"/>
<path d="M58.1129 66.1541C58.1129 66.4941 57.1029 66.6641 55.0829 66.6641C53.0629 66.6641 52.0529 66.4941 52.0529 66.1541V59.2541H47.8529V66.1541C47.8529 66.4941 46.8429 66.6641 44.8229 66.6641C42.8029 66.6641 41.7929 66.4941 41.7929 66.1541V46.2641C41.7929 45.8441 42.8029 45.6341 44.8229 45.6341C46.8429 45.6341 47.8529 45.8441 47.8529 46.2641V53.3141H52.0529V46.3241C52.0529 46.0441 52.5529 45.8441 53.5529 45.7241C54.0729 45.6841 54.5829 45.6641 55.0829 45.6641L56.6129 45.7241C57.6129 45.8441 58.1129 46.0441 58.1129 46.3241V66.1541Z" fill="white"/>
</svg>
