<svg width="53" height="50" viewBox="0 0 53 50" fill="none" xmlns="http://www.w3.org/2000/svg">
<path d="M4.84155 16C4.84155 9.37258 10.2141 4 16.8416 4H36.3485C42.9759 4 48.3485 9.37258 48.3485 16V34C48.3485 40.6274 42.9759 46 36.3485 46H16.8415C10.2141 46 4.84155 40.6274 4.84155 34V16Z" fill="white"/>
<path d="M48.1759 17.7096H5.01421M32.1197 32.293L26.595 26.9596L21.0703 32.293M48.1111 31.2513V18.7513C48.1111 8.33464 43.7949 4.16797 33.0045 4.16797H20.056C9.26563 4.16797 4.94946 8.33464 4.94946 18.7513V31.2513C4.94946 41.668 9.26563 45.8346 20.056 45.8346H33.0045C43.7949 45.8346 48.1111 41.668 48.1111 31.2513Z" stroke="#4D00B5" stroke-width="1.5" stroke-linecap="round" stroke-linejoin="round"/>
</svg>
