<svg width="16" height="15" viewBox="0 0 16 15" fill="none" xmlns="http://www.w3.org/2000/svg">
<g id="&#235;&#167;&#136;&#236;&#157;&#180;&#235;&#141;&#176;&#236;&#157;&#180;&#237;&#132;&#176;check">
<path id="Vector" d="M7.53833 0C3.39833 0 0.0383301 3.36 0.0383301 7.5C0.0383301 11.64 3.39833 15 7.53833 15C11.6783 15 15.0383 11.64 15.0383 7.5C15.0383 3.36 11.6783 0 7.53833 0ZM7.53833 13.5C4.23083 13.5 1.53833 10.8075 1.53833 7.5C1.53833 4.1925 4.23083 1.5 7.53833 1.5C10.8458 1.5 13.5383 4.1925 13.5383 7.5C13.5383 10.8075 10.8458 13.5 7.53833 13.5ZM10.9808 4.185L6.03833 9.1275L4.09583 7.1925L3.03833 8.25L6.03833 11.25L12.0383 5.25L10.9808 4.185Z" fill="#B1BBC0"/>
</g>
</svg>
