<svg width="5" height="5" viewBox="0 0 5 5" fill="none" xmlns="http://www.w3.org/2000/svg">
<g clip-path="url(#clip0_143_2093)">
<path d="M1.65179 4.41964L0.223214 4.77679L0.580357 3.70536V0.580357C0.580357 0.485636 0.617986 0.394796 0.684961 0.327819C0.751939 0.260842 0.842779 0.223214 0.9375 0.223214H4.41964C4.51436 0.223214 4.60521 0.260842 4.67218 0.327819C4.73914 0.394796 4.77679 0.485636 4.77679 0.580357V4.0625C4.77679 4.15721 4.73914 4.24807 4.67218 4.31504C4.60521 4.382 4.51436 4.41964 4.41964 4.41964H1.65179Z" fill="#FF7972"/>
<path fill-rule="evenodd" clip-rule="evenodd" d="M0.842801 0.485654C0.867919 0.460539 0.901983 0.446429 0.937505 0.446429H4.41965C4.45518 0.446429 4.48922 0.460539 4.51436 0.485654C4.53947 0.510771 4.55358 0.544836 4.55358 0.580357V4.0625C4.55358 4.09804 4.53947 4.13207 4.51436 4.15721C4.48922 4.18232 4.45518 4.19643 4.41965 4.19643H1.65179C1.63354 4.19643 1.61536 4.19868 1.59765 4.20311L0.563565 4.46161L0.792122 3.77593C0.799708 3.75318 0.803576 3.72936 0.803576 3.70536V0.580357C0.803576 0.544836 0.817687 0.510771 0.842801 0.485654ZM0.937505 0C0.783583 0 0.635969 0.0611446 0.52713 0.169982C0.41829 0.278821 0.357147 0.426436 0.357147 0.580357V3.66914L0.0114592 4.70621C-0.0143035 4.7835 0.0040875 4.86868 0.0594417 4.92846C0.114796 4.98821 0.19832 5.01311 0.277356 4.99332L1.67927 4.64286H4.41965C4.57358 4.64286 4.72118 4.58171 4.83001 4.47286C4.93886 4.36404 5 4.21643 5 4.0625V0.580357C5 0.426436 4.93886 0.278821 4.83001 0.169982C4.72118 0.0611446 4.57358 0 4.41965 0H0.937505ZM2.55899 1.497C2.61609 1.47335 2.67892 1.46716 2.73954 1.47922C2.80016 1.49128 2.85584 1.52104 2.89955 1.56474C2.94325 1.60845 2.97301 1.66413 2.98507 1.72475C2.99713 1.78537 2.99094 1.8482 2.96729 1.9053C2.94364 1.9624 2.90358 2.01121 2.85219 2.04555C2.8008 2.07989 2.74038 2.09821 2.67858 2.09821C2.5553 2.09821 2.45536 2.19815 2.45536 2.32143V2.67857C2.45536 2.80185 2.5553 2.90179 2.67858 2.90179C2.80185 2.90179 2.90179 2.80185 2.90179 2.67857V2.51108C2.97178 2.48954 3.03867 2.45787 3.10022 2.41674C3.22502 2.33335 3.32229 2.21482 3.37973 2.07614C3.43718 1.93747 3.4522 1.78487 3.42292 1.63765C3.39364 1.49044 3.32136 1.35521 3.21522 1.24907C3.10908 1.14293 2.97385 1.07065 2.82664 1.04137C2.67942 1.01209 2.52682 1.02711 2.38815 1.08456C2.24947 1.142 2.13094 1.23927 2.04755 1.36408C1.96416 1.48888 1.91965 1.63561 1.91965 1.78571C1.91965 1.90899 2.01958 2.00893 2.14286 2.00893C2.26614 2.00893 2.36608 1.90899 2.36608 1.78571C2.36608 1.72391 2.3844 1.66349 2.41874 1.6121C2.45308 1.56071 2.50189 1.52065 2.55899 1.497ZM2.67858 3.79464C2.50599 3.79464 2.36608 3.65471 2.36608 3.48214C2.36608 3.30955 2.50599 3.16964 2.67858 3.16964C2.85117 3.16964 2.99108 3.30955 2.99108 3.48214C2.99108 3.65471 2.85117 3.79464 2.67858 3.79464Z" fill="#4D00B5"/>
</g>
<defs>
<clipPath id="clip0_143_2093">
<rect width="5" height="5" fill="white"/>
</clipPath>
</defs>
</svg>
