<svg width="17" height="16" viewBox="0 0 17 16" fill="none" xmlns="http://www.w3.org/2000/svg">
<path d="M16.9949 15.2148L10.5484 15.2148L10.5484 8.68311C10.5484 8.03564 10.5937 7.36914 10.6843 6.68359C10.775 5.99805 10.9238 5.33789 11.1309 4.70312C11.338 4.06836 11.6034 3.45898 11.927 2.875C12.2506 2.29102 12.6519 1.7959 13.1309 1.38965C13.6098 0.983398 14.1535 0.646973 14.7619 0.380371C15.3703 0.11377 16.0823 -0.0131836 16.8978 -0.000488281V2.98926C16.4188 2.98926 16.0046 3.07812 15.6551 3.25586C15.3056 3.43359 15.0014 3.6748 14.7425 3.97949C14.4836 4.28418 14.2894 4.6333 14.16 5.02686C14.0305 5.42041 13.914 5.82666 13.8105 6.24561C13.7069 6.66455 13.6487 7.0835 13.6357 7.50244C13.6228 7.92139 13.6034 8.31494 13.5775 8.68311H16.9949V15.2148ZM0.00497055 15.2148V8.68311C0.00497055 7.69287 0.108528 6.68359 0.315643 5.65527C0.522758 4.62695 0.872265 3.69385 1.36416 2.85596C1.85606 2.01807 2.5033 1.33252 3.30587 0.799316C4.10844 0.266113 5.12459 -0.000488281 6.35434 -0.000488281V2.98926C5.64238 2.98926 5.06634 3.17969 4.62622 3.56055C4.1861 3.94141 3.84307 4.42383 3.59712 5.00781C3.35117 5.5918 3.18936 6.21387 3.1117 6.87402C3.03403 7.53418 2.98872 8.13721 2.97578 8.68311H6.39317L6.39317 15.2148L0.00497055 15.2148Z" fill="white"/>
</svg>
