<svg width="25" height="26" viewBox="0 0 25 26" fill="none" xmlns="http://www.w3.org/2000/svg">
<path d="M20.4309 20.3528H12.5568L8.63717 24.2725C8.1053 24.8044 7.45178 25.0703 6.67664 25.0703C5.90241 25.0703 5.24936 24.8044 4.71749 24.2725L0.797811 20.3528C0.265937 19.821 0 19.1619 0 18.3757C0 17.5894 0.265937 16.9304 0.797811 16.3985L4.6828 12.5135V4.63945L20.4309 20.3528ZM13.7362 17.5779L7.4578 11.2994V13.6582L2.74031 18.3757L6.65999 22.2953L11.3775 17.5779H13.7362ZM5.86217 1.96852C8.33654 0.396019 11.013 -0.234367 13.8916 0.0773572C16.7711 0.390007 19.2515 1.58695 21.3328 3.6682C23.414 5.74944 24.6105 8.22936 24.9222 11.108C25.2349 13.9875 24.6049 16.6644 23.0325 19.1388L21.0206 17.1269C22.0612 15.2307 22.4257 13.2244 22.1139 11.108C21.8013 8.99249 20.8818 7.17163 19.3556 5.64538C17.8293 4.11914 16.0085 3.19969 13.893 2.88704C11.7766 2.57531 9.77029 2.93976 7.87405 3.98039L5.86217 1.96852ZM9.95529 6.06163C11.2734 5.66851 12.6031 5.58757 13.9443 5.81882C15.2856 6.05007 16.4418 6.65132 17.4131 7.62257C18.3843 8.59381 18.9796 9.74451 19.1988 11.0747C19.4189 12.4039 19.3325 13.7276 18.9393 15.0457L16.5806 12.6869C16.5806 12.1088 16.4941 11.5478 16.3211 11.0039C16.1472 10.4609 15.8637 9.99287 15.4706 9.59975C15.0543 9.1835 14.5747 8.88288 14.0318 8.69788C13.4879 8.51288 12.9153 8.42038 12.314 8.42038L9.95529 6.06163Z" fill="#4D00B5"/>
</svg>
