<svg width="19" height="21" viewBox="0 0 19 21" fill="none" xmlns="http://www.w3.org/2000/svg">
<g id="&#237;&#156;&#152;&#235;&#166;&#173;icon">
<path id="&#237;&#156;&#152;&#235;&#166;&#173;icon_2" d="M15.7148 20.4753C16.1413 19.4003 16.4399 18.3124 16.6105 17.2115C16.7812 16.1113 16.8238 14.9981 16.7385 13.872C16.0901 15.2711 15.1005 16.3802 13.7696 17.1992C12.4387 18.0182 10.9884 18.4277 9.41862 18.4277C7.98535 18.4277 6.68858 18.0906 5.52832 17.4162C4.36805 16.7426 3.37842 15.8427 2.55941 14.7166C1.7404 13.5904 1.10908 12.2978 0.665446 10.8386C0.221815 9.38005 0 7.86591 0 6.29614C0 5.22119 0.0726872 4.15886 0.218062 3.10917C0.362753 2.06015 0.614258 1.02376 0.972575 0H3.12248C2.71297 1.05789 2.41881 2.14137 2.23999 3.25045C2.06049 4.35952 2.0134 5.47713 2.09871 6.60327C2.76416 5.18706 3.75823 4.07389 5.08093 3.26376C6.40295 2.45294 7.84885 2.04753 9.41862 2.04753C10.8519 2.04753 12.1487 2.38434 13.3089 3.05798C14.4692 3.7323 15.4588 4.62809 16.2778 5.74536C17.0968 6.8633 17.7282 8.15154 18.1718 9.61006C18.6154 11.0693 18.8372 12.5923 18.8372 14.1791C18.8372 15.2541 18.7649 16.316 18.6202 17.3651C18.4748 18.4148 18.223 19.4515 17.8647 20.4753H15.7148ZM9.41862 16.3802C11.1249 16.3802 12.5752 15.783 13.7696 14.5886C14.964 13.3942 15.5612 11.9439 15.5612 10.2376C15.5612 8.53135 14.964 7.08102 13.7696 5.88663C12.5752 4.69225 11.1249 4.09505 9.41862 4.09505C7.71235 4.09505 6.26201 4.69225 5.06763 5.88663C3.87324 7.08102 3.27604 8.53135 3.27604 10.2376C3.27604 11.9439 3.87324 13.3942 5.06763 14.5886C6.26201 15.783 7.71235 16.3802 9.41862 16.3802ZM9.41862 14.3327C10.5448 14.3327 11.5088 13.9317 12.3107 13.1298C13.1127 12.3278 13.5137 11.3638 13.5137 10.2376C13.5137 9.11149 13.1127 8.14744 12.3107 7.3455C11.5088 6.54355 10.5448 6.14258 9.41862 6.14258C8.29248 6.14258 7.32843 6.54355 6.52649 7.3455C5.72454 8.14744 5.32357 9.11149 5.32357 10.2376C5.32357 11.3638 5.72454 12.3278 6.52649 13.1298C7.32843 13.9317 8.29248 14.3327 9.41862 14.3327ZM9.41862 12.2852C8.85555 12.2852 8.3737 12.0845 7.97306 11.6832C7.57175 11.2825 7.37109 10.8007 7.37109 10.2376C7.37109 9.67456 7.57175 9.19236 7.97306 8.79105C8.3737 8.39042 8.85555 8.1901 9.41862 8.1901C9.98169 8.1901 10.4639 8.39042 10.8652 8.79105C11.2658 9.19236 11.4661 9.67456 11.4661 10.2376C11.4661 10.8007 11.2658 11.2825 10.8652 11.6832C10.4639 12.0845 9.98169 12.2852 9.41862 12.2852Z" fill="#4D00B5"/>
</g>
</svg>
