<svg width="30" height="33" viewBox="0 0 30 33" fill="none" xmlns="http://www.w3.org/2000/svg">
<path d="M25.0272 32.6087C25.7065 30.8967 26.1821 29.1641 26.4538 27.4109C26.7255 25.6587 26.7935 23.8859 26.6576 22.0924C25.625 24.3207 24.0489 26.087 21.9293 27.3913C19.8098 28.6956 17.5 29.3478 15 29.3478C12.7174 29.3478 10.6522 28.8109 8.80435 27.737C6.95652 26.6641 5.38043 25.231 4.07609 23.4375C2.77174 21.644 1.7663 19.5853 1.05978 17.2614C0.353261 14.9386 0 12.5272 0 10.0272C0 8.31522 0.115761 6.62337 0.347283 4.95163C0.577717 3.28098 0.978261 1.63043 1.54891 0H4.97283C4.32065 1.68478 3.85217 3.41033 3.56739 5.17663C3.28152 6.94293 3.20652 8.72282 3.34239 10.5163C4.40217 8.26087 5.98533 6.48804 8.09185 5.19783C10.1973 3.90652 12.5 3.26087 15 3.26087C17.2826 3.26087 19.3478 3.79728 21.1957 4.87011C23.0435 5.94402 24.6196 7.37065 25.9239 9.15C27.2283 10.9304 28.2337 12.9821 28.9402 15.3049C29.6467 17.6288 30 20.0543 30 22.5815C30 24.2935 29.8848 25.9848 29.6543 27.6554C29.4228 29.3272 29.0217 30.9783 28.4511 32.6087H25.0272ZM15 26.087C17.7174 26.087 20.0272 25.1359 21.9293 23.2337C23.8315 21.3315 24.7826 19.0217 24.7826 16.3043C24.7826 13.587 23.8315 11.2772 21.9293 9.375C20.0272 7.47283 17.7174 6.52174 15 6.52174C12.2826 6.52174 9.97282 7.47283 8.07065 9.375C6.16848 11.2772 5.21739 13.587 5.21739 16.3043C5.21739 19.0217 6.16848 21.3315 8.07065 23.2337C9.97282 25.1359 12.2826 26.087 15 26.087ZM15 22.8261C16.7935 22.8261 18.3288 22.1875 19.606 20.9103C20.8831 19.6332 21.5217 18.0978 21.5217 16.3043C21.5217 14.5109 20.8831 12.9755 19.606 11.6984C18.3288 10.4212 16.7935 9.78261 15 9.78261C13.2065 9.78261 11.6712 10.4212 10.394 11.6984C9.11685 12.9755 8.47826 14.5109 8.47826 16.3043C8.47826 18.0978 9.11685 19.6332 10.394 20.9103C11.6712 22.1875 13.2065 22.8261 15 22.8261ZM15 19.5652C14.1033 19.5652 13.3359 19.2457 12.6978 18.6065C12.0587 17.9685 11.7391 17.2011 11.7391 16.3043C11.7391 15.4076 12.0587 14.6397 12.6978 14.0005C13.3359 13.3625 14.1033 13.0435 15 13.0435C15.8967 13.0435 16.6647 13.3625 17.3038 14.0005C17.9418 14.6397 18.2609 15.4076 18.2609 16.3043C18.2609 17.2011 17.9418 17.9685 17.3038 18.6065C16.6647 19.2457 15.8967 19.5652 15 19.5652Z" fill="#4D00B5"/>
</svg>
