<svg width="393" height="38" viewBox="0 0 393 38" fill="none" xmlns="http://www.w3.org/2000/svg">
<path d="M103.848 32.21H88.5175V7.55H94.2475V28.37H103.848V32.21ZM112.151 7.55V32.21H106.421V7.55H112.151ZM116.35 7.55H130.93V11.39H122.08V18.29H130.72V22.13H122.08V32.21H116.35V7.55ZM133.869 7.55H148.479V11.39H139.599V17.36H148.239V21.2H139.599V28.37H149.199V32.21H133.869V7.55ZM169.814 32.54C164.564 32.54 160.424 28.37 160.424 22.58C160.424 16.88 164.564 12.65 169.814 12.65C175.064 12.65 179.204 16.88 179.204 22.58C179.204 28.37 175.064 32.54 169.814 32.54ZM169.814 16.28C167.714 16.28 165.944 18.77 165.944 22.58C165.944 26.42 167.714 28.88 169.814 28.88C171.914 28.88 173.684 26.42 173.684 22.58C173.684 18.77 171.914 16.28 169.814 16.28ZM182.441 12.95H187.931V15.11C188.801 13.73 190.451 12.65 192.401 12.65C197.111 12.65 199.691 15.5 199.691 20.15V32.21H194.171V20.63C194.171 18.02 193.091 16.28 191.111 16.28C189.311 16.28 187.961 17.96 187.961 20.75V32.21H182.441V12.95ZM228.248 7.55H233.978V32.21H228.248V20.69H218.378V32.21H212.648V7.55H218.378V16.85H228.248V7.55ZM245.219 21.86H249.809L247.709 15.08L245.219 21.86ZM245.429 7.55H250.439L258.929 32.21H253.019L250.979 25.55H243.869L241.439 32.21H236.069L245.429 7.55ZM277.128 7.55H282.528V32.21H277.758L266.418 16.46V32.21H261.018V7.55H265.668L277.128 23.45V7.55ZM293.764 21.86H298.354L296.254 15.08L293.764 21.86ZM293.974 7.55H298.984L307.474 32.21H301.564L299.524 25.55H292.414L289.984 32.21H284.614L293.974 7.55Z" fill="white"/>
</svg>
