<svg width="100" height="100" viewBox="0 0 100 100" fill="none" xmlns="http://www.w3.org/2000/svg">
<circle cx="50.159" cy="49.7317" r="48.0247" fill="#4D00B5"/>
<path d="M34.1628 24.6552C32.2899 21.658 28.293 20.7096 25.6709 23.0793C21.4577 26.8869 18.1739 31.6518 16.1196 37.0098C13.2971 44.3713 12.949 52.4519 15.1281 60.0289C17.3072 67.6059 21.8949 74.267 28.197 79.0044C34.4991 83.7418 42.1727 86.2976 50.0568 86.2853C57.941 86.2729 65.6065 83.693 71.8938 78.9359C78.181 74.1788 82.7477 67.5033 84.9031 59.9195C87.0584 52.3357 86.685 44.2563 83.8394 36.9036C81.7683 31.5521 78.4696 26.7975 74.2445 23.0031C71.6149 20.6416 67.621 21.6026 65.7576 24.6057C63.8941 27.6088 64.9065 31.5092 67.2972 34.1121C69.2696 36.2594 70.8376 38.7691 71.9035 41.523C73.7453 46.2822 73.987 51.5119 72.5919 56.4207C71.1968 61.3295 68.2409 65.6504 64.1713 68.7295C60.1017 71.8087 55.14 73.4786 50.0368 73.4866C44.9336 73.4946 39.9666 71.8403 35.8874 68.7739C31.8082 65.7075 28.8387 61.3959 27.4282 56.4915C26.0177 51.5871 26.243 46.3567 28.07 41.5917C29.1272 38.8345 30.6873 36.3199 32.6529 34.1664C35.0355 31.556 36.0357 27.6525 34.1628 24.6552Z" fill="white"/>
<rect x="44.396" y="8.10938" width="11.099" height="32.8702" rx="5.54952" fill="white"/>
<path d="M58.1125 66.1541C58.1125 66.4941 57.1025 66.6641 55.0825 66.6641C53.0625 66.6641 52.0525 66.4941 52.0525 66.1541V59.2541H47.8525V66.1541C47.8525 66.4941 46.8425 66.6641 44.8225 66.6641C42.8025 66.6641 41.7925 66.4941 41.7925 66.1541V46.2641C41.7925 45.8441 42.8025 45.6341 44.8225 45.6341C46.8425 45.6341 47.8525 45.8441 47.8525 46.2641V53.3141H52.0525V46.3241C52.0525 46.0441 52.5525 45.8441 53.5525 45.7241C54.0725 45.6841 54.5825 45.6641 55.0825 45.6641L56.6125 45.7241C57.6125 45.8441 58.1125 46.0441 58.1125 46.3241V66.1541Z" fill="white"/>
</svg>
