<svg width="259" height="44" viewBox="0 0 259 44" fill="none" xmlns="http://www.w3.org/2000/svg">
<path d="M39.1734 4.58V3.16H27.2734V1.26H41.3534V4.5C41.3534 5.52 41.2334 6.68 41.0134 7.48H38.8934C39.0934 6.68 39.1734 5.56 39.1734 4.58ZM26.1934 10.46V8.56H42.5334V10.46H26.1934ZM27.3934 11.92H29.5534V13.82H39.1734V11.92H41.3534V19.36H27.3934V11.92ZM39.1734 17.54V15.66H29.5534V17.54H39.1734ZM49.3127 3.12V0.52H51.4927V3.12H55.5927V5H45.2527V3.12H49.3127ZM48.1527 12.36C48.1527 14.08 48.4327 15.3 49.1127 15.94C49.4727 16.26 49.9327 16.44 50.4927 16.44C51.0327 16.44 51.4527 16.26 51.7927 15.96C52.5127 15.32 52.8327 14.08 52.8327 12.36C52.8327 10.5 52.4527 9.26 51.7127 8.66C51.3927 8.4 50.9927 8.28 50.4927 8.28C49.9327 8.28 49.4927 8.42 49.1527 8.74C48.4527 9.38 48.1527 10.58 48.1527 12.36ZM45.9927 12.36C45.9927 9.94 46.6127 8.16 47.8727 7.18C48.5727 6.68 49.4327 6.4 50.4927 6.4C51.4127 6.4 52.2127 6.6 52.8527 7.04C54.2527 7.96 54.9927 9.82 54.9927 12.36C54.9927 14.9 54.2727 16.72 52.9127 17.64C52.2527 18.08 51.4527 18.3 50.4927 18.3C49.4727 18.3 48.6127 18.04 47.9327 17.54C46.6327 16.6 45.9927 14.82 45.9927 12.36ZM60.1727 1.04V8.44H63.0127V10.34H60.1727V19.18H57.9927V1.04H60.1727ZM69.7319 7.02V3.28H65.2119V1.36H71.8719V6.9C71.8719 7.36 71.8519 7.8 71.8319 8.22H74.0719V1.16H76.1919V18.96H74.0719V10.12H71.6319C70.9719 14.2 68.9319 17 65.0119 18.12V16.02C67.9719 14.98 69.7319 11.98 69.7319 7.02ZM80.0919 19.18H77.9719V1.04H80.0919V19.18ZM104.771 1.26V7.82H98.8314V10H105.951V11.86H89.6114V10H96.6714V7.82H90.8114V1.26H104.771ZM92.9714 6.02H102.591V3.1H92.9714V6.02ZM102.591 19.48V15.6H90.6914V13.74H104.771V19.48H102.591ZM123.971 3.12H112.171V6.28H124.071V8.16H118.031V10.56H125.151V12.46H108.811V10.56H115.871V8.16H110.011V1.26H123.971V3.12ZM112.171 13.98V17.38H124.291V19.26H110.011V13.98H112.171ZM135.75 9.62C135.75 6.74 135.55 4.64 134.79 3.68C134.43 3.18 133.87 2.92 133.21 2.92C132.57 2.92 132.01 3.18 131.63 3.68C130.91 4.64 130.69 6.74 130.69 9.62C130.69 12.5 130.91 14.6 131.63 15.58C132.01 16.04 132.57 16.3 133.21 16.3C133.87 16.3 134.43 16.04 134.79 15.58C135.55 14.6 135.75 12.5 135.75 9.62ZM128.53 9.62C128.53 6.34 128.85 3.88 130.01 2.46C130.75 1.54 131.87 1.04 133.21 1.04C134.57 1.04 135.67 1.54 136.43 2.46C137.59 3.88 137.91 6.34 137.91 9.62C137.91 12.9 137.59 15.36 136.43 16.78C135.67 17.7 134.57 18.16 133.21 18.16C131.87 18.16 130.75 17.7 130.01 16.78C128.85 15.36 128.53 12.9 128.53 9.62ZM143.23 1.04V19.18H141.05V1.04H143.23ZM161.989 9.28H153.209V7.5H155.109V3.06H153.429V1.26H163.769V3.06H162.049V5.24C162.049 6.02 161.909 6.94 161.729 7.5H162.549C164.169 7.5 165.309 7.24 166.109 6.66V1.04H168.289V9.8H166.109V8.34C165.369 9 164.049 9.28 161.989 9.28ZM157.229 7.5H159.649C159.829 6.9 159.929 6.08 159.929 5.36V3.06H157.229V7.5ZM156.909 16.02V17.6H168.509V19.36H154.729V14.3H166.109V12.68H154.729V10.94H168.289V16.02H156.909ZM172.889 6.58C172.889 4.92 173.549 3.64 174.669 2.74C176.009 1.66 178.009 1.16 180.409 1.16C182.829 1.16 184.829 1.66 186.169 2.74C187.269 3.64 187.949 4.92 187.949 6.58C187.949 8.28 187.269 9.54 186.169 10.44C185.789 10.74 185.349 11 184.869 11.22V16.5H188.449V18.38H172.349V16.5H176.049V11.26C175.529 11.04 175.069 10.76 174.669 10.44C173.549 9.54 172.889 8.28 172.889 6.58ZM182.689 11.84C181.989 11.96 181.229 12.02 180.409 12.02C179.629 12.02 178.889 11.96 178.209 11.86V16.5H182.689V11.84ZM175.069 6.58C175.069 7.64 175.469 8.42 176.189 9C177.129 9.78 178.609 10.12 180.409 10.12C182.209 10.12 183.709 9.78 184.649 9C185.369 8.42 185.769 7.64 185.769 6.58C185.769 5.56 185.369 4.76 184.649 4.16C183.709 3.4 182.209 3.06 180.409 3.06C178.609 3.06 177.129 3.4 176.189 4.16C175.469 4.76 175.069 5.56 175.069 6.58ZM201.488 3.98H191.168V2.24H195.308V0.52H197.468V2.24H201.488V3.98ZM193.808 7.76C193.808 8.12 194.008 8.4 194.348 8.62C194.808 8.9 195.528 9.04 196.348 9.04C197.108 9.04 197.788 8.94 198.268 8.68C198.648 8.48 198.888 8.18 198.888 7.76C198.888 7.38 198.668 7.1 198.308 6.88C197.828 6.64 197.148 6.5 196.348 6.5C195.568 6.5 194.848 6.64 194.388 6.88C194.028 7.1 193.808 7.38 193.808 7.76ZM191.708 7.76C191.708 6.82 192.168 6.08 192.988 5.56C193.788 5.1 194.908 4.84 196.348 4.84C197.708 4.84 198.828 5.1 199.648 5.56C200.488 6.06 200.968 6.8 200.968 7.76C200.968 8.72 200.528 9.46 199.728 9.94C198.948 10.44 197.788 10.72 196.348 10.72C194.968 10.72 193.808 10.46 192.988 9.96C192.188 9.48 191.708 8.72 191.708 7.76ZM206.208 5.06H208.848V6.96H206.208V10.62H204.028V1.04H206.208V5.06ZM194.988 17.72H206.428V19.36H192.828V14.74H204.028V13.36H192.828V11.7H206.208V16.34H194.988V17.72ZM222.987 3.24V16.08H223.047C224.507 16.08 225.587 15.84 226.247 15.26V1.16H228.327V8.22H230.047V1.04H232.147V19.18H230.047V10.12H228.327V18.96H226.247V17.02C225.587 17.68 224.327 17.96 222.627 17.96H216.727V1.36H224.987V3.24H222.987ZM220.907 16.08V3.24H218.827V16.08H220.907ZM45.1928 27.62C45.1928 26.76 45.6528 26.14 46.3528 25.7C47.2928 25.16 48.6928 24.92 50.1928 24.92C51.6728 24.92 53.0728 25.16 54.0128 25.7C54.7328 26.14 55.1528 26.76 55.1528 27.62C55.1528 28.44 54.7328 29.06 54.0128 29.5C53.0728 30.06 51.6728 30.28 50.1928 30.28C48.6928 30.28 47.2928 30.06 46.3528 29.5C45.6528 29.06 45.1928 28.44 45.1928 27.62ZM47.2728 27.62C47.2728 27.88 47.4328 28.1 47.7128 28.26C48.2128 28.58 49.1128 28.68 50.1928 28.68C51.2328 28.68 52.1528 28.58 52.6728 28.26C52.9528 28.1 53.0728 27.88 53.0728 27.62C53.0728 27.34 52.9528 27.12 52.6728 26.96C52.1528 26.62 51.2328 26.52 50.1928 26.52C49.1128 26.52 48.2128 26.62 47.7128 26.96C47.4328 27.12 47.2728 27.34 47.2728 27.62ZM59.8128 35.44H57.6328V34.96H53.6728V33.38H57.6328V25.04H59.8128V35.44ZM50.4928 32.82V35.42H48.3128V32.82H44.5128V31.12H52.7528C54.2128 31.12 55.4928 31.06 56.4928 30.78V32.38C55.5728 32.68 54.2528 32.82 52.8128 32.82H50.4928ZM48.4328 41.78H60.0328V43.36H46.2528V38.98H57.6328V37.72H46.2528V36.14H59.8128V40.54H48.4328V41.78ZM76.732 28.58V27.16H64.832V25.26H78.912V28.5C78.912 29.52 78.792 30.68 78.572 31.48H76.452C76.652 30.68 76.732 29.56 76.732 28.58ZM63.752 34.46V32.56H80.092V34.46H63.752ZM64.952 35.92H67.112V37.82H76.732V35.92H78.912V43.36H64.952V35.92ZM76.732 41.54V39.66H67.112V41.54H76.732ZM86.3113 30.04V31.36H98.2113V33.08H92.1713V34.48H99.2913V36.26H82.9513V34.48H90.0113V33.08H84.1513V25.26H98.1113V27H86.3113V28.34H97.8713V30.04H86.3113ZM83.8113 40.6C83.8113 39.56 84.4513 38.82 85.5113 38.34C86.8112 37.74 88.7713 37.5 91.1513 37.5C93.5113 37.5 95.4913 37.74 96.7713 38.34C97.8513 38.82 98.4713 39.56 98.4713 40.6C98.4713 41.68 97.8513 42.4 96.7713 42.88C95.4913 43.5 93.5113 43.7 91.1513 43.7C88.7713 43.7 86.8112 43.5 85.5113 42.88C84.4513 42.4 83.8113 41.68 83.8113 40.6ZM85.9913 40.6C85.9913 40.94 86.2113 41.2 86.6113 41.4C87.4513 41.8 89.0513 41.96 91.1513 41.96C93.2513 41.96 94.8313 41.8 95.6713 41.4C96.0713 41.2 96.3113 40.94 96.3113 40.6C96.3113 40.28 96.0713 40.02 95.6713 39.84C94.8313 39.42 93.2513 39.28 91.1513 39.28C89.0513 39.28 87.4513 39.42 86.6113 39.84C86.2113 40.02 85.9913 40.28 85.9913 40.6ZM102.51 27.14V25.26H111.89V27.14H108.29V27.82C108.29 30.9 109.95 32.36 112.21 32.86V34.78C110.05 34.4 108.19 33.26 107.25 31.72C106.29 33.28 104.41 34.66 102.19 35.02V33.08C104.51 32.58 106.11 30.96 106.11 27.82V27.14H102.51ZM116.93 25.04V29.12H119.57V31.02H116.93V35.38H114.75V25.04H116.93ZM103.31 39.74C103.31 38.64 103.83 37.8 104.65 37.18C105.95 36.26 107.99 35.88 110.35 35.88C112.69 35.88 114.75 36.26 116.03 37.18C116.85 37.8 117.37 38.64 117.37 39.74C117.37 40.86 116.85 41.7 116.03 42.32C114.75 43.24 112.69 43.6 110.35 43.6C107.99 43.6 105.95 43.24 104.65 42.32C103.83 41.7 103.31 40.86 103.31 39.74ZM105.49 39.74C105.49 40.24 105.75 40.66 106.23 40.98C107.03 41.52 108.49 41.74 110.35 41.74C112.19 41.74 113.65 41.52 114.49 40.98C114.95 40.66 115.19 40.24 115.19 39.74C115.19 39.24 114.95 38.82 114.49 38.5C113.65 37.98 112.19 37.74 110.35 37.74C108.49 37.74 107.03 37.98 106.23 38.5C105.75 38.82 105.49 39.24 105.49 39.74ZM122.21 27.92C122.21 27.16 122.51 26.58 123.09 26.14C124.21 25.32 126.37 25.02 129.55 25.02C132.75 25.02 134.89 25.32 135.99 26.14C136.57 26.58 136.87 27.16 136.87 27.92C136.87 28.66 136.57 29.24 135.99 29.68C134.89 30.5 132.75 30.8 129.55 30.8C126.37 30.8 124.21 30.5 123.09 29.68C122.51 29.24 122.21 28.66 122.21 27.92ZM124.39 27.92C124.39 28.14 124.51 28.34 124.75 28.52C125.39 28.9 126.99 29.04 129.55 29.04C132.11 29.04 133.71 28.9 134.35 28.52C134.59 28.34 134.71 28.14 134.71 27.92C134.71 27.68 134.59 27.48 134.35 27.32C133.71 26.92 132.11 26.78 129.55 26.78C126.99 26.78 125.39 26.92 124.75 27.32C124.51 27.48 124.39 27.68 124.39 27.92ZM121.35 33.96V32.16H137.69V33.96H121.35ZM124.71 40.28V41.6H136.91V43.36H122.55V38.54H134.33V37.2H122.55V35.44H136.51V40.28H124.71ZM154.109 33.62C154.109 30.74 153.909 28.64 153.149 27.68C152.789 27.18 152.229 26.92 151.569 26.92C150.929 26.92 150.369 27.18 149.989 27.68C149.269 28.64 149.049 30.74 149.049 33.62C149.049 36.5 149.269 38.6 149.989 39.58C150.369 40.04 150.929 40.3 151.569 40.3C152.229 40.3 152.789 40.04 153.149 39.58C153.909 38.6 154.109 36.5 154.109 33.62ZM146.889 33.62C146.889 30.34 147.209 27.88 148.369 26.46C149.109 25.54 150.229 25.04 151.569 25.04C152.929 25.04 154.029 25.54 154.789 26.46C155.949 27.88 156.269 30.34 156.269 33.62C156.269 36.9 155.949 39.36 154.789 40.78C154.029 41.7 152.929 42.16 151.569 42.16C150.229 42.16 149.109 41.7 148.369 40.78C147.209 39.36 146.889 36.9 146.889 33.62ZM161.589 25.04V43.18H159.409V25.04H161.589ZM166.428 28.46C166.428 27.5 166.828 26.78 167.568 26.24C168.848 25.32 171.068 25.02 173.768 25.02C176.448 25.02 178.688 25.32 179.948 26.24C180.688 26.78 181.088 27.5 181.088 28.46C181.088 29.44 180.688 30.16 179.948 30.68C179.468 31.04 178.848 31.3 178.108 31.48V33.48H181.908V35.34H165.568V33.48H169.468V31.5C168.708 31.32 168.068 31.04 167.568 30.68C166.828 30.16 166.428 29.44 166.428 28.46ZM175.968 31.84C175.288 31.9 174.548 31.92 173.768 31.92C173.008 31.92 172.288 31.9 171.608 31.84V33.48H175.968V31.84ZM168.608 28.46C168.608 28.82 168.788 29.12 169.108 29.34C169.888 29.88 171.568 30.08 173.768 30.08C175.968 30.08 177.628 29.88 178.408 29.34C178.748 29.12 178.928 28.82 178.928 28.46C178.928 28.1 178.748 27.82 178.408 27.6C177.628 27.06 175.968 26.86 173.768 26.86C171.568 26.86 169.888 27.06 169.108 27.6C168.788 27.82 168.608 28.1 168.608 28.46ZM166.428 40.26C166.428 39.14 166.948 38.38 167.888 37.82C169.148 37.1 171.188 36.8 173.768 36.8C176.368 36.8 178.368 37.1 179.628 37.82C180.568 38.38 181.088 39.14 181.088 40.26C181.088 41.38 180.568 42.14 179.628 42.7C178.368 43.42 176.368 43.7 173.768 43.7C171.188 43.7 169.148 43.42 167.888 42.7C166.948 42.14 166.428 41.38 166.428 40.26ZM168.608 40.26C168.608 40.66 168.828 41 169.228 41.24C170.048 41.7 171.568 41.88 173.768 41.88C175.968 41.88 177.488 41.7 178.288 41.24C178.708 41 178.928 40.66 178.928 40.26C178.928 39.86 178.708 39.54 178.288 39.28C177.488 38.82 175.968 38.64 173.768 38.64C171.568 38.64 170.048 38.82 169.228 39.28C168.828 39.54 168.608 39.86 168.608 40.26ZM192.848 29H184.988V27.12H187.868V24.52H190.068V27.12H192.848V29ZM187.448 36.32C187.448 38.4 187.708 39.62 188.228 40.16C188.428 40.36 188.688 40.48 188.988 40.48C189.268 40.48 189.528 40.38 189.748 40.2C190.268 39.68 190.528 38.44 190.528 36.32C190.528 34.24 190.288 33 189.788 32.48C189.568 32.26 189.288 32.16 188.988 32.16C188.648 32.16 188.368 32.28 188.128 32.56C187.688 33.14 187.448 34.32 187.448 36.32ZM185.368 36.32C185.368 33.66 185.868 31.82 187.008 30.94C187.508 30.52 188.168 30.3 188.988 30.3C189.808 30.3 190.468 30.54 191.008 30.98C192.108 31.88 192.628 33.7 192.628 36.32C192.628 39 192.108 40.82 190.948 41.7C190.448 42.1 189.788 42.3 188.988 42.3C188.188 42.3 187.548 42.1 187.048 41.72C185.868 40.84 185.368 39.02 185.368 36.32ZM200.268 43.18H198.188V34.16H196.368V42.96H194.348V25.16H196.368V32.26H198.188V25.04H200.268V43.18ZM207.207 28.96H217.067V25.36H219.247V36.34H213.267V40.5H220.187V42.38H204.087V40.5H211.107V36.34H205.027V25.36H207.207V28.96ZM217.067 34.44V30.86H207.207V34.44H217.067ZM226.966 38.06C226.246 39.66 224.726 41.12 222.886 41.96V39.94C224.706 38.84 225.886 37 225.886 32.98V25.26H228.026V32.98C228.026 37.02 229.206 38.82 231.046 39.96V41.96C229.206 41.14 227.706 39.64 226.966 38.06ZM234.666 42.96H232.546V33.52H229.806V31.64H232.546V25.16H234.666V42.96ZM238.666 43.18H236.546V25.04H238.666V43.18ZM243.025 30.58C243.025 28.92 243.685 27.64 244.805 26.74C246.145 25.66 248.145 25.16 250.545 25.16C252.965 25.16 254.965 25.66 256.305 26.74C257.405 27.64 258.085 28.92 258.085 30.58C258.085 32.28 257.405 33.54 256.305 34.44C255.925 34.74 255.485 35 255.005 35.22V40.5H258.585V42.38H242.485V40.5H246.185V35.26C245.665 35.04 245.205 34.76 244.805 34.44C243.685 33.54 243.025 32.28 243.025 30.58ZM252.825 35.84C252.125 35.96 251.365 36.02 250.545 36.02C249.765 36.02 249.025 35.96 248.345 35.86V40.5H252.825V35.84ZM245.205 30.58C245.205 31.64 245.605 32.42 246.325 33C247.265 33.78 248.745 34.12 250.545 34.12C252.345 34.12 253.845 33.78 254.785 33C255.505 32.42 255.905 31.64 255.905 30.58C255.905 29.56 255.505 28.76 254.785 28.16C253.845 27.4 252.345 27.06 250.545 27.06C248.745 27.06 247.265 27.4 246.325 28.16C245.605 28.76 245.205 29.56 245.205 30.58Z" fill="black"/>
<path d="M10.4755 26.86V29.24H0.0354688V26.86H3.87547V24.4H6.61547V26.86H10.4755ZM0.775469 36.34C0.775469 33.86 1.39547 31.96 2.75547 30.98C3.45547 30.48 4.29547 30.22 5.35547 30.22C6.39547 30.22 7.25547 30.48 7.93547 30.98C9.31547 31.96 9.93547 33.86 9.93547 36.34C9.93547 38.82 9.31547 40.74 7.93547 41.72C7.25547 42.2 6.39547 42.46 5.35547 42.46C4.29547 42.46 3.45547 42.2 2.75547 41.72C1.39547 40.74 0.775469 38.82 0.775469 36.34ZM3.49547 36.34C3.49547 38.04 3.69547 39.16 4.31547 39.72C4.57547 39.96 4.91547 40.08 5.35547 40.08C5.77547 40.08 6.11547 39.96 6.37547 39.72C6.99547 39.16 7.21547 38.04 7.21547 36.34C7.21547 34.66 6.99547 33.52 6.37547 32.96C6.11547 32.72 5.77547 32.6 5.35547 32.6C4.91547 32.6 4.57547 32.72 4.31547 32.96C3.69547 33.52 3.49547 34.66 3.49547 36.34ZM15.1955 32.22H17.9555V34.58H15.1955V43.3H12.4555V24.94H15.1955V32.22ZM27.9747 42.08H19.9747V25.16H22.6947V39.7H28.5147C29.9947 39.7 31.0747 39.46 31.6547 38.96V24.94H34.3947V32.22H37.1547V34.58H34.3947V43.3H31.6547V41.18C31.0547 41.78 29.7147 42.08 27.9747 42.08Z" fill="#148071"/>
</svg>
