<svg width="284" height="44" viewBox="0 0 284 44" fill="none" xmlns="http://www.w3.org/2000/svg">
<path d="M83.5126 2.86V5.24H73.0726V2.86H76.9126V0.399999H79.6526V2.86H83.5126ZM73.8126 12.34C73.8126 9.86 74.4326 7.96 75.7926 6.98C76.4926 6.48 77.3326 6.22 78.3926 6.22C79.4326 6.22 80.2926 6.48 80.9726 6.98C82.3526 7.96 82.9726 9.86 82.9726 12.34C82.9726 14.82 82.3526 16.74 80.9726 17.72C80.2926 18.2 79.4326 18.46 78.3926 18.46C77.3326 18.46 76.4926 18.2 75.7926 17.72C74.4326 16.74 73.8126 14.82 73.8126 12.34ZM76.5326 12.34C76.5326 14.04 76.7326 15.16 77.3526 15.72C77.6126 15.96 77.9526 16.08 78.3926 16.08C78.8126 16.08 79.1526 15.96 79.4126 15.72C80.0326 15.16 80.2526 14.04 80.2526 12.34C80.2526 10.66 80.0326 9.52 79.4126 8.96C79.1526 8.72 78.8126 8.6 78.3926 8.6C77.9526 8.6 77.6126 8.72 77.3526 8.96C76.7326 9.52 76.5326 10.66 76.5326 12.34ZM88.2326 8.22H90.9926V10.58H88.2326V19.3H85.4926V0.939999H88.2326V8.22ZM101.012 18.08H93.0118V1.16H95.7318V15.7H101.552C103.032 15.7 104.112 15.46 104.692 14.96V0.939999H107.432V8.22H110.192V10.58H107.432V19.3H104.692V17.18C104.092 17.78 102.752 18.08 101.012 18.08ZM112.471 4.8C112.471 3.68 112.891 2.86 113.611 2.28C114.971 1.22 117.331 0.939999 119.911 0.939999C122.511 0.939999 124.851 1.22 126.211 2.28C126.931 2.86 127.351 3.68 127.351 4.8C127.351 5.9 126.931 6.72 126.211 7.3C124.851 8.36 122.511 8.64 119.911 8.64C117.331 8.64 114.971 8.36 113.611 7.3C112.891 6.72 112.471 5.9 112.471 4.8ZM115.211 4.8C115.211 5.18 115.371 5.46 115.691 5.68C116.411 6.2 117.871 6.36 119.911 6.36C121.951 6.36 123.431 6.2 124.131 5.68C124.451 5.46 124.611 5.18 124.611 4.8C124.611 4.4 124.451 4.12 124.131 3.9C123.431 3.38 121.951 3.22 119.911 3.22C117.871 3.22 116.411 3.38 115.691 3.9C115.371 4.12 115.211 4.4 115.211 4.8ZM111.631 10.1H128.151V12.48H111.631V10.1ZM115.531 16.98H127.311V19.38H112.791V13.84H115.531V16.98ZM133.87 0.399999H136.57V2.02H139.31V4.24H130.97V2.02H133.87V0.399999ZM131.31 8.34C131.31 7.3 131.71 6.38 132.43 5.76C133.09 5.18 134.03 4.84 135.17 4.84C136.31 4.84 137.25 5.18 137.91 5.76C138.65 6.38 139.05 7.3 139.05 8.34C139.05 9.4 138.65 10.32 137.91 10.94C137.25 11.52 136.31 11.86 135.17 11.86C134.03 11.86 133.09 11.52 132.43 10.94C131.71 10.32 131.31 9.4 131.31 8.34ZM133.83 8.34C133.83 8.72 133.95 9.04 134.17 9.28C134.41 9.56 134.75 9.74 135.17 9.74C135.61 9.74 135.95 9.56 136.17 9.28C136.39 9.04 136.53 8.72 136.53 8.34C136.53 7.96 136.39 7.64 136.17 7.4C135.95 7.12 135.61 6.96 135.17 6.96C134.75 6.96 134.41 7.12 134.17 7.4C133.95 7.64 133.83 7.96 133.83 8.34ZM143.93 12.14V7.66H142.51V11.8H139.93V1.04H142.51V5.26H143.93V0.939999H146.55V12.14H143.93ZM132.31 16.14C132.31 14.96 132.89 14.14 133.85 13.58C135.19 12.82 137.29 12.56 139.65 12.56C142.01 12.56 144.09 12.82 145.45 13.58C146.41 14.14 146.99 14.96 146.99 16.14C146.99 17.3 146.41 18.12 145.45 18.68C144.09 19.44 142.01 19.7 139.65 19.7C137.29 19.7 135.19 19.44 133.85 18.68C132.89 18.12 132.31 17.3 132.31 16.14ZM135.05 16.14C135.05 16.44 135.23 16.66 135.59 16.86C136.33 17.24 137.81 17.4 139.65 17.4C141.49 17.4 142.97 17.24 143.71 16.86C144.05 16.66 144.25 16.44 144.25 16.14C144.25 15.84 144.05 15.6 143.71 15.4C142.97 15.02 141.49 14.86 139.65 14.86C137.81 14.86 136.33 15.02 135.59 15.4C135.23 15.6 135.05 15.84 135.05 16.14Z" fill="#148071"/>
<path d="M157.869 8.64V3.28H150.889V1.36H160.029V8.32C160.029 9.96 159.869 11.94 159.589 13.16H157.449C157.709 11.94 157.869 10.16 157.869 8.64ZM152.889 16.28V8.02H155.049V16.28H159.089C160.709 16.28 161.969 15.96 162.709 15.34V1.04H164.889V8.44H167.729V10.34H164.889V19.18H162.709V17.14C161.969 17.82 160.489 18.16 158.669 18.16H150.289V16.28H152.889ZM185.189 4.04H174.869V2.26H179.009V0.52H181.169V2.26H185.189V4.04ZM177.509 8.34C177.509 8.82 177.749 9.2 178.129 9.48C178.609 9.82 179.269 10 180.049 10C180.869 10 181.569 9.8 182.049 9.44C182.389 9.16 182.589 8.8 182.589 8.34C182.589 7.88 182.369 7.48 182.009 7.2C181.529 6.84 180.829 6.68 180.049 6.68C179.289 6.68 178.609 6.86 178.129 7.2C177.749 7.48 177.509 7.88 177.509 8.34ZM175.409 8.34C175.409 7.28 175.909 6.44 176.709 5.86C177.549 5.26 178.729 4.96 180.049 4.96C181.409 4.96 182.569 5.28 183.369 5.86C184.189 6.44 184.669 7.3 184.669 8.34C184.669 9.44 184.189 10.26 183.329 10.84C182.509 11.4 181.369 11.7 180.049 11.7C178.689 11.7 177.489 11.38 176.649 10.76C175.889 10.18 175.409 9.38 175.409 8.34ZM189.909 1.04V5.48H192.549V7.38H189.909V11.88H187.729V1.04H189.909ZM176.529 19.36V13.02H189.909V19.36H176.529ZM187.729 14.92H178.689V17.52H187.729V14.92ZM210.028 19.18H207.928V1.04H210.028V19.18ZM202.608 1.36V8.22H204.368V1.14H206.448V18.96H204.368V10.12H202.608V11.04C202.608 15.3 201.308 17.6 198.368 18.64V16.64C199.748 15.86 200.548 14.36 200.548 10.88V3.28H198.708V9.96C198.708 14.32 197.528 16.44 194.508 17.6V15.6C195.968 14.78 196.608 13.44 196.608 9.82L196.628 3.28H194.608V1.36H202.608ZM12.795 29.82H15.775V31.64H1.155V29.82H3.835V27.1H1.495V25.26H15.455V27.1H13.115V28.34C13.115 28.86 13.015 29.42 12.795 29.82ZM5.995 27.1V29.82H10.675C10.875 29.44 10.935 28.94 10.935 28.46V27.1H5.995ZM0.295 35.14V33.28H16.635V35.14H9.515V36.82C11.615 36.88 13.275 37.2 14.355 37.82C15.295 38.38 15.815 39.14 15.815 40.26C15.815 41.38 15.295 42.14 14.355 42.7C13.095 43.42 11.095 43.7 8.495 43.7C5.915 43.7 3.875 43.42 2.615 42.7C1.675 42.14 1.155 41.38 1.155 40.26C1.155 39.14 1.675 38.38 2.615 37.82C3.695 37.2 5.315 36.9 7.375 36.82V35.14H0.295ZM3.335 40.26C3.335 40.66 3.555 41 3.955 41.24C4.775 41.7 6.295 41.88 8.495 41.88C10.695 41.88 12.215 41.7 13.015 41.24C13.435 41 13.655 40.66 13.655 40.26C13.655 39.86 13.435 39.54 13.015 39.28C12.215 38.82 10.695 38.64 8.495 38.64C6.295 38.64 4.775 38.82 3.955 39.28C3.555 39.54 3.335 39.86 3.335 40.26ZM20.1542 30.58C20.1542 28.92 20.8142 27.64 21.9342 26.74C23.2742 25.66 25.2742 25.16 27.6742 25.16C30.0942 25.16 32.0942 25.66 33.4342 26.74C34.5342 27.64 35.2142 28.92 35.2142 30.58C35.2142 32.28 34.5342 33.54 33.4342 34.44C33.0542 34.74 32.6142 35 32.1342 35.22V40.5H35.7142V42.38H19.6142V40.5H23.3142V35.26C22.7942 35.04 22.3342 34.76 21.9342 34.44C20.8142 33.54 20.1542 32.28 20.1542 30.58ZM29.9542 35.84C29.2542 35.96 28.4942 36.02 27.6742 36.02C26.8942 36.02 26.1542 35.96 25.4742 35.86V40.5H29.9542V35.84ZM22.3342 30.58C22.3342 31.64 22.7342 32.42 23.4542 33C24.3942 33.78 25.8742 34.12 27.6742 34.12C29.4742 34.12 30.9742 33.78 31.9142 33C32.6342 32.42 33.0342 31.64 33.0342 30.58C33.0342 29.56 32.6342 28.76 31.9142 28.16C30.9742 27.4 29.4742 27.06 27.6742 27.06C25.8742 27.06 24.3942 27.4 23.4542 28.16C22.7342 28.76 22.3342 29.56 22.3342 30.58ZM41.9334 32.06V35.02H54.1934V36.9H47.9934V40.5H54.9134V42.38H38.8134V40.5H45.8334V36.9H39.7534V30.18H51.7934V27.28H39.7534V25.36H53.9734V32.06H41.9334ZM58.7527 28.74C58.7527 27.68 59.1727 26.86 59.9527 26.3C61.2527 25.32 63.4927 25.02 66.0927 25.02C68.6927 25.02 70.9127 25.32 72.2127 26.3C72.9927 26.86 73.4127 27.68 73.4127 28.74C73.4127 29.82 72.9927 30.64 72.2127 31.2C70.9127 32.18 68.6927 32.48 66.0927 32.48C63.4927 32.48 61.2527 32.18 59.9527 31.2C59.1727 30.64 58.7527 29.82 58.7527 28.74ZM60.9327 28.74C60.9327 29.24 61.1527 29.6 61.5727 29.9C62.3727 30.46 63.9127 30.66 66.0927 30.66C68.2527 30.66 69.7927 30.46 70.5927 29.9C71.0127 29.6 71.2527 29.24 71.2527 28.74C71.2527 28.26 71.0127 27.9 70.5927 27.6C69.7927 27.06 68.2527 26.84 66.0927 26.84C63.9127 26.84 62.3727 27.06 61.5727 27.6C61.1527 27.9 60.9327 28.26 60.9327 28.74ZM57.8927 36.08V34.2H74.2327V36.08H67.3527V39.44H65.1927V36.08H57.8927ZM61.2527 37.98V41.38H73.3727V43.26H59.0927V37.98H61.2527ZM83.7722 28.74C83.7722 27.68 84.1922 26.86 84.9722 26.3C86.2722 25.32 88.5122 25.02 91.1122 25.02C93.7122 25.02 95.9322 25.32 97.2322 26.3C98.0122 26.86 98.4322 27.68 98.4322 28.74C98.4322 29.82 98.0122 30.64 97.2322 31.2C95.9322 32.18 93.7122 32.48 91.1122 32.48C88.5122 32.48 86.2722 32.18 84.9722 31.2C84.1922 30.64 83.7722 29.82 83.7722 28.74ZM85.9522 28.74C85.9522 29.24 86.1722 29.6 86.5922 29.9C87.3922 30.46 88.9322 30.66 91.1122 30.66C93.2722 30.66 94.8122 30.46 95.6122 29.9C96.0322 29.6 96.2722 29.24 96.2722 28.74C96.2722 28.26 96.0322 27.9 95.6122 27.6C94.8122 27.06 93.2722 26.84 91.1122 26.84C88.9322 26.84 87.3922 27.06 86.5922 27.6C86.1722 27.9 85.9522 28.26 85.9522 28.74ZM82.9122 36.24V34.36H99.2522V36.24H82.9122ZM86.2722 37.98V41.38H98.3922V43.26H84.1122V37.98H86.2722ZM112.251 27.2H105.211V30.06H112.151V31.88H105.211V34.72H112.571V36.54H108.811V40.28H111.291C112.931 40.28 114.311 40.04 115.151 39.34V25.04H117.331V43.18H115.151V41.12C114.371 41.86 112.731 42.14 110.731 42.14H102.291V40.28H106.651V36.54H103.051V25.36H112.251V27.2ZM131.071 31.78C130.371 33.2 128.691 34.56 126.931 35.26V33.24C128.611 32.36 129.971 30.76 129.971 27.76V25.16H132.111V27.7C132.111 30.7 133.471 32 135.131 32.82V34.82C133.431 34.26 131.851 33.12 131.071 31.78ZM136.271 35.02V25.16H138.331V28.84H140.551V25.04H142.651V35.34H140.551V30.74H138.331V35.02H136.271ZM128.591 39.84C128.591 38.7 129.131 37.88 129.971 37.3C131.311 36.38 133.471 36.04 135.811 36.04C138.151 36.04 140.291 36.38 141.651 37.3C142.511 37.88 143.011 38.7 143.011 39.84C143.011 40.96 142.511 41.78 141.651 42.38C140.291 43.28 138.151 43.6 135.811 43.6C133.471 43.6 131.311 43.28 129.971 42.38C129.131 41.78 128.591 40.96 128.591 39.84ZM130.751 39.84C130.751 40.32 131.011 40.68 131.451 40.96C132.311 41.54 133.911 41.76 135.811 41.76C137.711 41.76 139.291 41.54 140.151 40.96C140.591 40.68 140.851 40.32 140.851 39.84C140.851 39.36 140.591 38.98 140.151 38.7C139.291 38.14 137.711 37.9 135.811 37.9C133.911 37.9 132.311 38.14 131.451 38.7C131.011 38.98 130.751 39.36 130.751 39.84ZM150.67 24.52H152.87V25.86H156.95V27.44H146.57V25.86H150.67V24.52ZM149.05 30.4C149.05 30.6 149.21 30.78 149.45 30.88C149.93 31.1 150.75 31.16 151.75 31.16C152.73 31.16 153.55 31.1 154.01 30.88C154.27 30.78 154.43 30.6 154.43 30.4C154.43 30.18 154.27 30.02 154.01 29.9C153.55 29.68 152.71 29.62 151.75 29.62C150.75 29.62 149.91 29.68 149.43 29.9C149.19 30.02 149.05 30.18 149.05 30.4ZM146.99 30.4C146.99 29.68 147.37 29.16 148.05 28.8C148.89 28.34 150.17 28.14 151.75 28.14C153.31 28.14 154.55 28.34 155.37 28.76C156.07 29.14 156.47 29.66 156.47 30.4C156.47 31.08 156.09 31.62 155.41 31.98C154.79 32.3 153.91 32.5 152.85 32.58V33.62H155.49C157.09 33.62 158.25 33.34 158.93 32.88V25.04H161.11V29.54H163.77V31.44H161.11V35.58H158.93V34.4C158.19 34.98 156.93 35.26 154.91 35.26H146.31V33.62H150.67V32.58C149.57 32.5 148.69 32.3 148.05 31.96C147.39 31.6 146.99 31.08 146.99 30.4ZM149.89 40.64V41.8H161.33V43.36H147.73V39.12H158.93V38H147.73V36.44H161.11V40.64H149.89ZM166.389 27.92C166.389 27.16 166.689 26.58 167.269 26.14C168.389 25.32 170.549 25.02 173.729 25.02C176.929 25.02 179.069 25.32 180.169 26.14C180.749 26.58 181.049 27.16 181.049 27.92C181.049 28.66 180.749 29.24 180.169 29.68C179.069 30.5 176.929 30.8 173.729 30.8C170.549 30.8 168.389 30.5 167.269 29.68C166.689 29.24 166.389 28.66 166.389 27.92ZM168.569 27.92C168.569 28.14 168.689 28.34 168.929 28.52C169.569 28.9 171.169 29.04 173.729 29.04C176.289 29.04 177.889 28.9 178.529 28.52C178.769 28.34 178.889 28.14 178.889 27.92C178.889 27.68 178.769 27.48 178.529 27.32C177.889 26.92 176.289 26.78 173.729 26.78C171.169 26.78 169.569 26.92 168.929 27.32C168.689 27.48 168.569 27.68 168.569 27.92ZM165.529 33.96V32.16H181.869V33.96H165.529ZM168.889 40.28V41.6H181.089V43.36H166.729V38.54H178.509V37.2H166.729V35.44H180.689V40.28H168.889ZM193.789 25.16V31.7H205.969V33.6H191.609V25.16H193.789ZM190.669 38.16V36.26H206.769V38.16H199.769V43.48H197.609V38.16H190.669ZM217.108 41.96H210.488V32.62H216.288V27.28H210.488V25.36H218.428V34.52H212.648V40.06H217.228C218.568 40.06 219.808 39.96 220.728 39.64V41.44C219.828 41.8 218.508 41.96 217.108 41.96ZM224.968 25.04V43.18H222.788V36.88H219.468V34.98H222.788V31.08H219.468V29.18H222.788V25.04H224.968ZM232.187 28.96H242.047V25.36H244.227V36.34H238.247V40.5H245.167V42.38H229.067V40.5H236.087V36.34H230.007V25.36H232.187V28.96ZM242.047 34.44V30.86H232.187V34.44H242.047ZM251.947 38.06C251.227 39.66 249.707 41.12 247.867 41.96V39.94C249.687 38.84 250.867 37 250.867 32.98V25.26H253.007V32.98C253.007 37.02 254.187 38.82 256.027 39.96V41.96C254.187 41.14 252.687 39.64 251.947 38.06ZM259.647 42.96H257.527V33.52H254.787V31.64H257.527V25.16H259.647V42.96ZM263.647 43.18H261.527V25.04H263.647V43.18ZM268.006 30.58C268.006 28.92 268.666 27.64 269.786 26.74C271.126 25.66 273.126 25.16 275.526 25.16C277.946 25.16 279.946 25.66 281.286 26.74C282.386 27.64 283.066 28.92 283.066 30.58C283.066 32.28 282.386 33.54 281.286 34.44C280.906 34.74 280.466 35 279.986 35.22V40.5H283.566V42.38H267.466V40.5H271.166V35.26C270.646 35.04 270.186 34.76 269.786 34.44C268.666 33.54 268.006 32.28 268.006 30.58ZM277.806 35.84C277.106 35.96 276.346 36.02 275.526 36.02C274.746 36.02 274.006 35.96 273.326 35.86V40.5H277.806V35.84ZM270.186 30.58C270.186 31.64 270.586 32.42 271.306 33C272.246 33.78 273.726 34.12 275.526 34.12C277.326 34.12 278.826 33.78 279.766 33C280.486 32.42 280.886 31.64 280.886 30.58C280.886 29.56 280.486 28.76 279.766 28.16C278.826 27.4 277.326 27.06 275.526 27.06C273.726 27.06 272.246 27.4 271.306 28.16C270.586 28.76 270.186 29.56 270.186 30.58Z" fill="black"/>
</svg>
