<svg width="284" height="44" viewBox="0 0 284 44" fill="none" xmlns="http://www.w3.org/2000/svg">
<path d="M80.6024 2.86V5.24H70.1624V2.86H74.0024V0.399999H76.7424V2.86H80.6024ZM70.9024 12.34C70.9024 9.86 71.5224 7.96 72.8824 6.98C73.5824 6.48 74.4224 6.22 75.4824 6.22C76.5224 6.22 77.3824 6.48 78.0624 6.98C79.4424 7.96 80.0624 9.86 80.0624 12.34C80.0624 14.82 79.4424 16.74 78.0624 17.72C77.3824 18.2 76.5224 18.46 75.4824 18.46C74.4224 18.46 73.5824 18.2 72.8824 17.72C71.5224 16.74 70.9024 14.82 70.9024 12.34ZM73.6224 12.34C73.6224 14.04 73.8224 15.16 74.4424 15.72C74.7024 15.96 75.0424 16.08 75.4824 16.08C75.9024 16.08 76.2424 15.96 76.5024 15.72C77.1224 15.16 77.3424 14.04 77.3424 12.34C77.3424 10.66 77.1224 9.52 76.5024 8.96C76.2424 8.72 75.9024 8.6 75.4824 8.6C75.0424 8.6 74.7024 8.72 74.4424 8.96C73.8224 9.52 73.6224 10.66 73.6224 12.34ZM85.3224 8.22H88.0824V10.58H85.3224V19.3H82.5824V0.939999H85.3224V8.22ZM98.1016 18.08H90.1016V1.16H92.8216V15.7H98.6416C100.122 15.7 101.202 15.46 101.782 14.96V0.939999H104.522V8.22H107.282V10.58H104.522V19.3H101.782V17.18C101.182 17.78 99.8416 18.08 98.1016 18.08ZM109.561 4.8C109.561 3.68 109.981 2.86 110.701 2.28C112.061 1.22 114.421 0.939999 117.001 0.939999C119.601 0.939999 121.941 1.22 123.301 2.28C124.021 2.86 124.441 3.68 124.441 4.8C124.441 5.9 124.021 6.72 123.301 7.3C121.941 8.36 119.601 8.64 117.001 8.64C114.421 8.64 112.061 8.36 110.701 7.3C109.981 6.72 109.561 5.9 109.561 4.8ZM112.301 4.8C112.301 5.18 112.461 5.46 112.781 5.68C113.501 6.2 114.961 6.36 117.001 6.36C119.041 6.36 120.521 6.2 121.221 5.68C121.541 5.46 121.701 5.18 121.701 4.8C121.701 4.4 121.541 4.12 121.221 3.9C120.521 3.38 119.041 3.22 117.001 3.22C114.961 3.22 113.501 3.38 112.781 3.9C112.461 4.12 112.301 4.4 112.301 4.8ZM108.721 10.1H125.241V12.48H108.721V10.1ZM112.621 16.98H124.401V19.38H109.881V13.84H112.621V16.98ZM130.96 0.399999H133.66V2.02H136.4V4.24H128.06V2.02H130.96V0.399999ZM128.4 8.34C128.4 7.3 128.8 6.38 129.52 5.76C130.18 5.18 131.12 4.84 132.26 4.84C133.4 4.84 134.34 5.18 135 5.76C135.74 6.38 136.14 7.3 136.14 8.34C136.14 9.4 135.74 10.32 135 10.94C134.34 11.52 133.4 11.86 132.26 11.86C131.12 11.86 130.18 11.52 129.52 10.94C128.8 10.32 128.4 9.4 128.4 8.34ZM130.92 8.34C130.92 8.72 131.04 9.04 131.26 9.28C131.5 9.56 131.84 9.74 132.26 9.74C132.7 9.74 133.04 9.56 133.26 9.28C133.48 9.04 133.62 8.72 133.62 8.34C133.62 7.96 133.48 7.64 133.26 7.4C133.04 7.12 132.7 6.96 132.26 6.96C131.84 6.96 131.5 7.12 131.26 7.4C131.04 7.64 130.92 7.96 130.92 8.34ZM141.02 12.14V7.66H139.6V11.8H137.02V1.04H139.6V5.26H141.02V0.939999H143.64V12.14H141.02ZM129.4 16.14C129.4 14.96 129.98 14.14 130.94 13.58C132.28 12.82 134.38 12.56 136.74 12.56C139.1 12.56 141.18 12.82 142.54 13.58C143.5 14.14 144.08 14.96 144.08 16.14C144.08 17.3 143.5 18.12 142.54 18.68C141.18 19.44 139.1 19.7 136.74 19.7C134.38 19.7 132.28 19.44 130.94 18.68C129.98 18.12 129.4 17.3 129.4 16.14ZM132.14 16.14C132.14 16.44 132.32 16.66 132.68 16.86C133.42 17.24 134.9 17.4 136.74 17.4C138.58 17.4 140.06 17.24 140.8 16.86C141.14 16.66 141.34 16.44 141.34 16.14C141.34 15.84 141.14 15.6 140.8 15.4C140.06 15.02 138.58 14.86 136.74 14.86C134.9 14.86 133.42 15.02 132.68 15.4C132.32 15.6 132.14 15.84 132.14 16.14Z" fill="#148071"/>
<path d="M148.059 3.92C148.059 3.16 148.359 2.58 148.939 2.14C150.059 1.32 152.219 1.02 155.399 1.02C158.599 1.02 160.739 1.32 161.839 2.14C162.419 2.58 162.719 3.16 162.719 3.92C162.719 4.66 162.419 5.24 161.839 5.68C160.739 6.5 158.599 6.8 155.399 6.8C152.219 6.8 150.059 6.5 148.939 5.68C148.359 5.24 148.059 4.66 148.059 3.92ZM150.239 3.92C150.239 4.14 150.359 4.34 150.599 4.52C151.239 4.9 152.839 5.04 155.399 5.04C157.959 5.04 159.559 4.9 160.199 4.52C160.439 4.34 160.559 4.14 160.559 3.92C160.559 3.68 160.439 3.48 160.199 3.32C159.559 2.92 157.959 2.78 155.399 2.78C152.839 2.78 151.239 2.92 150.599 3.32C150.359 3.48 150.239 3.68 150.239 3.92ZM147.199 9.96V8.16H163.539V9.96H147.199ZM150.559 16.28V17.6H162.759V19.36H148.399V14.54H160.179V13.2H148.399V11.44H162.359V16.28H150.559ZM175.579 6.04V7.36H187.479V9.08H181.439V10.48H188.559V12.26H172.219V10.48H179.279V9.08H173.419V1.26H187.379V3H175.579V4.34H187.139V6.04H175.579ZM173.079 16.6C173.079 15.56 173.719 14.82 174.779 14.34C176.079 13.74 178.039 13.5 180.419 13.5C182.779 13.5 184.759 13.74 186.039 14.34C187.119 14.82 187.739 15.56 187.739 16.6C187.739 17.68 187.119 18.4 186.039 18.88C184.759 19.5 182.779 19.7 180.419 19.7C178.039 19.7 176.079 19.5 174.779 18.88C173.719 18.4 173.079 17.68 173.079 16.6ZM175.259 16.6C175.259 16.94 175.479 17.2 175.879 17.4C176.719 17.8 178.319 17.96 180.419 17.96C182.519 17.96 184.099 17.8 184.939 17.4C185.339 17.2 185.579 16.94 185.579 16.6C185.579 16.28 185.339 16.02 184.939 15.84C184.099 15.42 182.519 15.28 180.419 15.28C178.319 15.28 176.719 15.42 175.879 15.84C175.479 16.02 175.259 16.28 175.259 16.6ZM199.498 5H191.638V3.12H194.518V0.52H196.718V3.12H199.498V5ZM194.098 12.32C194.098 14.4 194.358 15.62 194.878 16.16C195.078 16.36 195.338 16.48 195.638 16.48C195.918 16.48 196.178 16.38 196.398 16.2C196.918 15.68 197.178 14.44 197.178 12.32C197.178 10.24 196.938 9 196.438 8.48C196.218 8.26 195.938 8.16 195.638 8.16C195.298 8.16 195.018 8.28 194.778 8.56C194.338 9.14 194.098 10.32 194.098 12.32ZM192.018 12.32C192.018 9.66 192.518 7.82 193.658 6.94C194.158 6.52 194.818 6.3 195.638 6.3C196.458 6.3 197.118 6.54 197.658 6.98C198.758 7.88 199.278 9.7 199.278 12.32C199.278 15 198.758 16.82 197.598 17.7C197.098 18.1 196.438 18.3 195.638 18.3C194.838 18.3 194.198 18.1 193.698 17.72C192.518 16.84 192.018 15.02 192.018 12.32ZM206.918 19.18H204.838V10.16H203.018V18.96H200.998V1.16H203.018V8.26H204.838V1.04H206.918V19.18ZM1.155 28.74C1.155 27.68 1.575 26.86 2.355 26.3C3.655 25.32 5.895 25.02 8.495 25.02C11.095 25.02 13.315 25.32 14.615 26.3C15.395 26.86 15.815 27.68 15.815 28.74C15.815 29.82 15.395 30.64 14.615 31.2C13.315 32.18 11.095 32.48 8.495 32.48C5.895 32.48 3.655 32.18 2.355 31.2C1.575 30.64 1.155 29.82 1.155 28.74ZM3.335 28.74C3.335 29.24 3.555 29.6 3.975 29.9C4.775 30.46 6.315 30.66 8.495 30.66C10.655 30.66 12.195 30.46 12.995 29.9C13.415 29.6 13.655 29.24 13.655 28.74C13.655 28.26 13.415 27.9 12.995 27.6C12.195 27.06 10.655 26.84 8.495 26.84C6.315 26.84 4.775 27.06 3.975 27.6C3.555 27.9 3.335 28.26 3.335 28.74ZM0.295 36.24V34.36H16.635V36.24H0.295ZM3.655 37.98V41.38H15.775V43.26H1.495V37.98H3.655ZM29.6342 27.2H22.5942V30.06H29.5342V31.88H22.5942V34.72H29.9542V36.54H26.1942V40.28H28.6742C30.3142 40.28 31.6942 40.04 32.5342 39.34V25.04H34.7142V43.18H32.5342V41.12C31.7542 41.86 30.1142 42.14 28.1142 42.14H19.6742V40.28H24.0342V36.54H20.4342V25.36H29.6342V27.2ZM52.2538 33.62C52.2538 30.74 52.0538 28.64 51.2938 27.68C50.9338 27.18 50.3738 26.92 49.7138 26.92C49.0738 26.92 48.5138 27.18 48.1338 27.68C47.4138 28.64 47.1938 30.74 47.1938 33.62C47.1938 36.5 47.4138 38.6 48.1338 39.58C48.5138 40.04 49.0738 40.3 49.7138 40.3C50.3738 40.3 50.9338 40.04 51.2938 39.58C52.0538 38.6 52.2538 36.5 52.2538 33.62ZM45.0338 33.62C45.0338 30.34 45.3538 27.88 46.5138 26.46C47.2538 25.54 48.3737 25.04 49.7138 25.04C51.0738 25.04 52.1738 25.54 52.9338 26.46C54.0938 27.88 54.4138 30.34 54.4138 33.62C54.4138 36.9 54.0938 39.36 52.9338 40.78C52.1738 41.7 51.0738 42.16 49.7138 42.16C48.3737 42.16 47.2538 41.7 46.5138 40.78C45.3538 39.36 45.0338 36.9 45.0338 33.62ZM59.7338 25.04V43.18H57.5538V25.04H59.7338ZM79.433 26.42V28.26H64.333V26.42H70.753V24.4H72.973V26.42H79.433ZM66.953 32.9C66.953 33.38 67.253 33.74 67.793 34C68.653 34.42 70.133 34.58 71.873 34.58C73.433 34.58 74.853 34.46 75.753 34.1C76.413 33.84 76.813 33.44 76.813 32.9C76.813 32.4 76.493 32.04 75.953 31.78C75.053 31.36 73.553 31.2 71.873 31.2C70.193 31.2 68.753 31.38 67.853 31.78C67.273 32.04 66.953 32.4 66.953 32.9ZM64.773 32.9C64.773 31.68 65.453 30.82 66.633 30.26C67.913 29.64 69.753 29.36 71.873 29.36C73.973 29.36 75.833 29.62 77.113 30.24C78.273 30.8 78.973 31.68 78.973 32.9C78.973 34.12 78.253 35 77.053 35.56C75.773 36.16 73.953 36.44 71.873 36.44C69.733 36.44 67.873 36.16 66.593 35.52C65.433 34.94 64.773 34.08 64.773 32.9ZM63.833 39.58V37.68H79.933V39.58H72.933V43.48H70.773V39.58H63.833ZM83.3122 33.62C83.3122 29.26 83.6922 27.04 84.7322 25.9C85.2722 25.34 85.9722 25.04 86.9322 25.04C87.8922 25.04 88.6122 25.34 89.1322 25.9C90.0722 26.92 90.4722 28.78 90.5522 32.24H92.5322V25.16H94.6522V42.96H92.5322V34.14H90.5722C90.5322 38.16 90.1522 40.24 89.1322 41.34C88.6122 41.88 87.8922 42.16 86.9322 42.16C85.9722 42.16 85.2722 41.88 84.7322 41.34C83.6922 40.2 83.3122 37.98 83.3122 33.62ZM85.3922 33.62C85.3922 37.36 85.5522 39.16 86.1122 39.9C86.3122 40.18 86.5922 40.3 86.9322 40.3C87.2922 40.3 87.5522 40.18 87.7722 39.9C88.3322 39.16 88.4722 37.36 88.4722 33.62C88.4722 29.88 88.3322 28.06 87.7722 27.34C87.5522 27.06 87.2922 26.92 86.9322 26.92C86.5922 26.92 86.3122 27.06 86.1122 27.34C85.5522 28.06 85.3922 29.88 85.3922 33.62ZM98.4122 43.18H96.2922V25.04H98.4122V43.18ZM117.391 27.28H105.351V33.44H117.531V35.34H111.411V40.5H118.331V42.38H102.231V40.5H109.251V35.34H103.171V25.36H117.391V27.28ZM127.771 27.62C127.771 26.76 128.231 26.14 128.931 25.7C129.871 25.16 131.271 24.92 132.771 24.92C134.251 24.92 135.651 25.16 136.591 25.7C137.311 26.14 137.731 26.76 137.731 27.62C137.731 28.44 137.311 29.06 136.591 29.5C135.651 30.06 134.251 30.28 132.771 30.28C131.271 30.28 129.871 30.06 128.931 29.5C128.231 29.06 127.771 28.44 127.771 27.62ZM129.851 27.62C129.851 27.88 130.011 28.1 130.291 28.26C130.791 28.58 131.691 28.68 132.771 28.68C133.811 28.68 134.731 28.58 135.251 28.26C135.531 28.1 135.651 27.88 135.651 27.62C135.651 27.34 135.531 27.12 135.251 26.96C134.731 26.62 133.811 26.52 132.771 26.52C131.691 26.52 130.791 26.62 130.291 26.96C130.011 27.12 129.851 27.34 129.851 27.62ZM142.391 35.44H140.211V34.96H136.251V33.38H140.211V25.04H142.391V35.44ZM133.071 32.82V35.42H130.891V32.82H127.091V31.12H135.331C136.791 31.12 138.071 31.06 139.071 30.78V32.38C138.151 32.68 136.831 32.82 135.391 32.82H133.071ZM131.011 41.78H142.611V43.36H128.831V38.98H140.211V37.72H128.831V36.14H142.391V40.54H131.011V41.78ZM159.31 28.58V27.16H147.41V25.26H161.49V28.5C161.49 29.52 161.37 30.68 161.15 31.48H159.03C159.23 30.68 159.31 29.56 159.31 28.58ZM146.33 34.46V32.56H162.67V34.46H146.33ZM147.53 35.92H149.69V37.82H159.31V35.92H161.49V43.36H147.53V35.92ZM159.31 41.54V39.66H149.69V41.54H159.31ZM166.389 27.92C166.389 27.16 166.689 26.58 167.269 26.14C168.389 25.32 170.549 25.02 173.729 25.02C176.929 25.02 179.069 25.32 180.169 26.14C180.749 26.58 181.049 27.16 181.049 27.92C181.049 28.66 180.749 29.24 180.169 29.68C179.069 30.5 176.929 30.8 173.729 30.8C170.549 30.8 168.389 30.5 167.269 29.68C166.689 29.24 166.389 28.66 166.389 27.92ZM168.569 27.92C168.569 28.14 168.689 28.34 168.929 28.52C169.569 28.9 171.169 29.04 173.729 29.04C176.289 29.04 177.889 28.9 178.529 28.52C178.769 28.34 178.889 28.14 178.889 27.92C178.889 27.68 178.769 27.48 178.529 27.32C177.889 26.92 176.289 26.78 173.729 26.78C171.169 26.78 169.569 26.92 168.929 27.32C168.689 27.48 168.569 27.68 168.569 27.92ZM165.529 33.96V32.16H181.869V33.96H165.529ZM168.889 40.28V41.6H181.089V43.36H166.729V38.54H178.509V37.2H166.729V35.44H180.689V40.28H168.889ZM193.049 28.16H197.669V25.26H199.769V34.68H190.909V25.26H193.049V28.16ZM197.669 32.82V30.02H193.049V32.82H197.669ZM205.329 25.04V29.22H207.969V31.12H205.329V35.38H203.149V25.04H205.329ZM194.109 38.4V41.52H205.549V43.36H191.949V36.54H205.329V38.4H194.109ZM217.348 33.62C217.348 30.74 217.128 28.64 216.408 27.68C216.028 27.18 215.468 26.92 214.828 26.92C214.168 26.92 213.608 27.18 213.248 27.68C212.488 28.64 212.308 30.74 212.308 33.62C212.308 36.5 212.488 38.6 213.248 39.58C213.608 40.04 214.168 40.3 214.828 40.3C215.468 40.3 216.028 40.04 216.408 39.58C217.128 38.6 217.348 36.5 217.348 33.62ZM210.148 33.62C210.148 30.34 210.468 27.88 211.608 26.46C212.368 25.54 213.468 25.04 214.828 25.04C216.168 25.04 217.288 25.54 218.028 26.46C219.188 27.88 219.508 30.34 219.508 33.62C219.508 36.9 219.188 39.36 218.028 40.78C217.288 41.7 216.168 42.16 214.828 42.16C213.468 42.16 212.368 41.7 211.608 40.78C210.468 39.36 210.148 36.9 210.148 33.62ZM224.528 25.04V32.44H227.368V34.34H224.528V43.18H222.348V25.04H224.528ZM232.187 28.96H242.047V25.36H244.227V36.34H238.247V40.5H245.167V42.38H229.067V40.5H236.087V36.34H230.007V25.36H232.187V28.96ZM242.047 34.44V30.86H232.187V34.44H242.047ZM251.947 38.06C251.227 39.66 249.707 41.12 247.867 41.96V39.94C249.687 38.84 250.867 37 250.867 32.98V25.26H253.007V32.98C253.007 37.02 254.187 38.82 256.027 39.96V41.96C254.187 41.14 252.687 39.64 251.947 38.06ZM259.647 42.96H257.527V33.52H254.787V31.64H257.527V25.16H259.647V42.96ZM263.647 43.18H261.527V25.04H263.647V43.18ZM268.006 30.58C268.006 28.92 268.666 27.64 269.786 26.74C271.126 25.66 273.126 25.16 275.526 25.16C277.946 25.16 279.946 25.66 281.286 26.74C282.386 27.64 283.066 28.92 283.066 30.58C283.066 32.28 282.386 33.54 281.286 34.44C280.906 34.74 280.466 35 279.986 35.22V40.5H283.566V42.38H267.466V40.5H271.166V35.26C270.646 35.04 270.186 34.76 269.786 34.44C268.666 33.54 268.006 32.28 268.006 30.58ZM277.806 35.84C277.106 35.96 276.346 36.02 275.526 36.02C274.746 36.02 274.006 35.96 273.326 35.86V40.5H277.806V35.84ZM270.186 30.58C270.186 31.64 270.586 32.42 271.306 33C272.246 33.78 273.726 34.12 275.526 34.12C277.326 34.12 278.826 33.78 279.766 33C280.486 32.42 280.886 31.64 280.886 30.58C280.886 29.56 280.486 28.76 279.766 28.16C278.826 27.4 277.326 27.06 275.526 27.06C273.726 27.06 272.246 27.4 271.306 28.16C270.586 28.76 270.186 29.56 270.186 30.58Z" fill="black"/>
</svg>
