<svg width="290" height="44" viewBox="0 0 290 44" fill="none" xmlns="http://www.w3.org/2000/svg">
<path d="M1.35883 3.62C1.35883 2.76 1.81883 2.14 2.51883 1.7C3.45883 1.16 4.85883 0.919999 6.35883 0.919999C7.83883 0.919999 9.23883 1.16 10.1788 1.7C10.8988 2.14 11.3188 2.76 11.3188 3.62C11.3188 4.44 10.8988 5.06 10.1788 5.5C9.23883 6.06 7.83883 6.28 6.35883 6.28C4.85883 6.28 3.45883 6.06 2.51883 5.5C1.81883 5.06 1.35883 4.44 1.35883 3.62ZM3.43883 3.62C3.43883 3.88 3.59883 4.1 3.87883 4.26C4.37883 4.58 5.27883 4.68 6.35883 4.68C7.39883 4.68 8.31883 4.58 8.83883 4.26C9.11883 4.1 9.23883 3.88 9.23883 3.62C9.23883 3.34 9.11883 3.12 8.83883 2.96C8.31883 2.62 7.39883 2.52 6.35883 2.52C5.27883 2.52 4.37883 2.62 3.87883 2.96C3.59883 3.12 3.43883 3.34 3.43883 3.62ZM15.9788 11.44H13.7988V10.96H9.83883V9.38H13.7988V1.04H15.9788V11.44ZM6.65883 8.82V11.42H4.47883V8.82H0.678828V7.12H8.91883C10.3788 7.12 11.6588 7.06 12.6588 6.78V8.38C11.7388 8.68 10.4188 8.82 8.97883 8.82H6.65883ZM4.59883 17.78H16.1988V19.36H2.41883V14.98H13.7988V13.72H2.41883V12.14H15.9788V16.54H4.59883V17.78ZM32.898 4.58V3.16H20.998V1.26H35.078V4.5C35.078 5.52 34.958 6.68 34.738 7.48H32.618C32.818 6.68 32.898 5.56 32.898 4.58ZM19.918 10.46V8.56H36.258V10.46H19.918ZM21.118 11.92H23.278V13.82H32.898V11.92H35.078V19.36H21.118V11.92ZM32.898 17.54V15.66H23.278V17.54H32.898ZM39.6373 5.22V3.34H43.4373V0.52H45.6373V3.34H49.4773V5.22H45.6373V8.16C45.6373 13 47.5373 14.96 49.6373 15.96V17.96C47.3773 17.18 45.4173 15.42 44.5373 13.5C43.6573 15.42 41.6773 17.2 39.4373 17.96V15.96C41.4973 14.98 43.4373 13 43.4373 8.16V5.22H39.6373ZM54.3373 1.04V19.18H52.1573V10.64H48.1573V8.72H52.1573V1.04H54.3373ZM66.1365 11.14H58.9165V5.26H65.0165V3.08H58.9165V1.26H67.1765V7.08H61.0765V9.34H66.2365C67.4165 9.34 68.5165 9.26 69.4365 8.94V10.66C68.5365 11.02 67.3765 11.14 66.1365 11.14ZM68.0365 7V5.1H71.3965V1.04H73.5765V11.84H71.3965V7H68.0365ZM60.0165 19.36V12.96H73.5765V19.36H60.0165ZM71.3965 14.82H62.1965V17.52H71.3965V14.82ZM98.496 3.06H86.696V4.96H98.596V6.76H84.536V1.26H98.496V3.06ZM83.336 9.96V8.16H99.676V9.96H83.336ZM86.696 16.28V17.6H98.896V19.36H84.536V14.54H96.316V13.2H84.536V11.44H98.496V16.28H86.696ZM110.275 9.62C110.275 6.74 110.075 4.64 109.315 3.68C108.955 3.18 108.395 2.92 107.735 2.92C107.095 2.92 106.535 3.18 106.155 3.68C105.435 4.64 105.215 6.74 105.215 9.62C105.215 12.5 105.435 14.6 106.155 15.58C106.535 16.04 107.095 16.3 107.735 16.3C108.395 16.3 108.955 16.04 109.315 15.58C110.075 14.6 110.275 12.5 110.275 9.62ZM103.055 9.62C103.055 6.34 103.375 3.88 104.535 2.46C105.275 1.54 106.395 1.04 107.735 1.04C109.095 1.04 110.195 1.54 110.955 2.46C111.955 3.68 112.335 5.66 112.415 8.26H115.575V1.04H117.755V19.18H115.575V10.14H112.435C112.395 13.16 112.055 15.44 110.955 16.78C110.195 17.7 109.095 18.16 107.735 18.16C106.395 18.16 105.275 17.7 104.535 16.78C103.375 15.36 103.055 12.9 103.055 9.62ZM122.394 6.58C122.394 4.92 123.054 3.64 124.174 2.74C125.514 1.66 127.514 1.16 129.914 1.16C132.334 1.16 134.334 1.66 135.674 2.74C136.774 3.64 137.454 4.92 137.454 6.58C137.454 8.28 136.774 9.54 135.674 10.44C134.554 11.34 132.954 11.84 131.034 11.98V16.5H137.954V18.38H121.854V16.5H128.874V11.98C126.934 11.86 125.314 11.36 124.174 10.44C123.054 9.54 122.394 8.28 122.394 6.58ZM124.574 6.58C124.574 7.64 124.974 8.42 125.694 9C126.634 9.78 128.114 10.12 129.914 10.12C131.714 10.12 133.214 9.78 134.154 9C134.874 8.42 135.274 7.64 135.274 6.58C135.274 5.56 134.874 4.76 134.154 4.16C133.214 3.4 131.714 3.06 129.914 3.06C128.114 3.06 126.634 3.4 125.694 4.16C124.974 4.76 124.574 5.56 124.574 6.58ZM144.294 1.16V5.6H156.194V7.48H142.134V1.16H144.294ZM140.934 11.78V9.9H157.274V11.78H140.934ZM144.294 13.48V17.38H156.414V19.26H142.134V13.48H144.294ZM181.113 3.12H169.313V6.28H181.213V8.16H167.153V1.26H181.113V3.12ZM165.953 12.24V10.36H182.293V12.24H165.953ZM169.313 13.98V17.38H181.433V19.26H167.153V13.98H169.313ZM200.312 3.12H188.512V6.28H200.412V8.16H186.352V1.26H200.312V3.12ZM185.152 12.24V10.36H201.492V12.24H185.152ZM188.512 13.98V17.38H200.632V19.26H186.352V13.98H188.512ZM214.412 4.28H204.092V2.48H208.232V0.52H210.392V2.48H214.412V4.28ZM206.732 9.14C206.732 9.64 206.952 10.08 207.312 10.4C207.772 10.82 208.492 11.06 209.272 11.06C209.992 11.06 210.652 10.86 211.112 10.5C211.552 10.18 211.812 9.74 211.812 9.14C211.812 8.56 211.572 8.1 211.132 7.76C210.672 7.4 210.012 7.18 209.272 7.18C208.512 7.18 207.852 7.4 207.372 7.78C206.972 8.12 206.732 8.58 206.732 9.14ZM204.632 9.14C204.632 7.98 205.152 7.04 205.992 6.4C206.812 5.78 207.952 5.44 209.272 5.44C210.572 5.44 211.672 5.76 212.492 6.36C213.372 7 213.892 7.96 213.892 9.14C213.892 10.36 213.332 11.34 212.352 11.98C211.572 12.52 210.492 12.82 209.272 12.82C207.972 12.82 206.852 12.48 206.052 11.9C205.172 11.26 204.632 10.32 204.632 9.14ZM219.132 1.04V6.2H221.772V8.1H219.132V14.28H216.952V1.04H219.132ZM207.912 13.88V17.38H219.472V19.26H205.752V13.88H207.912ZM233.311 7.78C232.611 9.2 230.931 10.56 229.171 11.26V9.24C230.851 8.36 232.211 6.76 232.211 3.76V1.16H234.351V3.7C234.351 6.7 235.711 8 237.371 8.82V10.82C235.671 10.26 234.091 9.12 233.311 7.78ZM238.511 11.02V1.16H240.571V4.84H242.791V1.04H244.891V11.34H242.791V6.74H240.571V11.02H238.511ZM230.831 15.84C230.831 14.7 231.371 13.88 232.211 13.3C233.551 12.38 235.711 12.04 238.051 12.04C240.391 12.04 242.531 12.38 243.891 13.3C244.751 13.88 245.251 14.7 245.251 15.84C245.251 16.96 244.751 17.78 243.891 18.38C242.531 19.28 240.391 19.6 238.051 19.6C235.711 19.6 233.551 19.28 232.211 18.38C231.371 17.78 230.831 16.96 230.831 15.84ZM232.991 15.84C232.991 16.32 233.251 16.68 233.691 16.96C234.551 17.54 236.151 17.76 238.051 17.76C239.951 17.76 241.531 17.54 242.391 16.96C242.831 16.68 243.091 16.32 243.091 15.84C243.091 15.36 242.831 14.98 242.391 14.7C241.531 14.14 239.951 13.9 238.051 13.9C236.151 13.9 234.551 14.14 233.691 14.7C233.251 14.98 232.991 15.36 232.991 15.84ZM252.91 0.52H255.11V1.86H259.19V3.44H248.81V1.86H252.91V0.52ZM251.29 6.4C251.29 6.6 251.45 6.78 251.69 6.88C252.17 7.1 252.99 7.16 253.99 7.16C254.97 7.16 255.79 7.1 256.25 6.88C256.51 6.78 256.67 6.6 256.67 6.4C256.67 6.18 256.51 6.02 256.25 5.9C255.79 5.68 254.95 5.62 253.99 5.62C252.99 5.62 252.15 5.68 251.67 5.9C251.43 6.02 251.29 6.18 251.29 6.4ZM249.23 6.4C249.23 5.68 249.61 5.16 250.29 4.8C251.13 4.34 252.41 4.14 253.99 4.14C255.55 4.14 256.79 4.34 257.61 4.76C258.31 5.14 258.71 5.66 258.71 6.4C258.71 7.08 258.33 7.62 257.65 7.98C257.03 8.3 256.15 8.5 255.09 8.58V9.62H257.73C259.33 9.62 260.49 9.34 261.17 8.88V1.04H263.35V5.54H266.01V7.44H263.35V11.58H261.17V10.4C260.43 10.98 259.17 11.26 257.15 11.26H248.55V9.62H252.91V8.58C251.81 8.5 250.93 8.3 250.29 7.96C249.63 7.6 249.23 7.08 249.23 6.4ZM252.13 16.64V17.8H263.57V19.36H249.97V15.12H261.17V14H249.97V12.44H263.35V16.64H252.13ZM270.67 7.78H275.11V1.36H277.27V17.96H268.51V1.36H270.67V7.78ZM275.11 16.08V9.66H270.67V16.08H275.11ZM282.99 1.04V19.18H280.81V1.04H282.99ZM287.309 20.56V19.46C288.189 19.42 288.609 18.94 288.609 17.98H287.389V15.34H289.849V18.18C289.849 19.62 288.929 20.44 287.309 20.56ZM132.571 32.64V27.28H125.591V25.36H134.731V32.32C134.731 33.96 134.571 35.94 134.291 37.16H132.151C132.411 35.94 132.571 34.16 132.571 32.64ZM127.591 40.28V32.02H129.751V40.28H133.791C135.411 40.28 136.671 39.96 137.411 39.34V25.04H139.591V32.44H142.431V34.34H139.591V43.18H137.411V41.14C136.671 41.82 135.191 42.16 133.371 42.16H124.991V40.28H127.591ZM159.89 28.04H149.57V26.26H153.71V24.52H155.87V26.26H159.89V28.04ZM152.21 32.34C152.21 32.82 152.45 33.2 152.83 33.48C153.31 33.82 153.97 34 154.75 34C155.57 34 156.27 33.8 156.75 33.44C157.09 33.16 157.29 32.8 157.29 32.34C157.29 31.88 157.07 31.48 156.71 31.2C156.23 30.84 155.53 30.68 154.75 30.68C153.99 30.68 153.31 30.86 152.83 31.2C152.45 31.48 152.21 31.88 152.21 32.34ZM150.11 32.34C150.11 31.28 150.61 30.44 151.41 29.86C152.25 29.26 153.43 28.96 154.75 28.96C156.11 28.96 157.27 29.28 158.07 29.86C158.89 30.44 159.37 31.3 159.37 32.34C159.37 33.44 158.89 34.26 158.03 34.84C157.21 35.4 156.07 35.7 154.75 35.7C153.39 35.7 152.19 35.38 151.35 34.76C150.59 34.18 150.11 33.38 150.11 32.34ZM164.61 25.04V29.48H167.25V31.38H164.61V35.88H162.43V25.04H164.61ZM151.23 43.36V37.02H164.61V43.36H151.23ZM162.43 38.92H153.39V41.52H162.43V38.92ZM184.729 43.18H182.629V25.04H184.729V43.18ZM177.309 25.36V32.22H179.069V25.14H181.149V42.96H179.069V34.12H177.309V35.04C177.309 39.3 176.009 41.6 173.069 42.64V40.64C174.449 39.86 175.249 38.36 175.249 34.88V27.28H173.409V33.96C173.409 38.32 172.229 40.44 169.209 41.6V39.6C170.669 38.78 171.309 37.44 171.309 33.82L171.329 27.28H169.309V25.36H177.309ZM192.149 27.12V24.52H194.329V27.12H198.429V29H188.089V27.12H192.149ZM190.989 36.36C190.989 38.08 191.269 39.3 191.949 39.94C192.309 40.26 192.769 40.44 193.329 40.44C193.869 40.44 194.289 40.26 194.629 39.96C195.349 39.32 195.669 38.08 195.669 36.36C195.669 34.5 195.289 33.26 194.549 32.66C194.229 32.4 193.829 32.28 193.329 32.28C192.769 32.28 192.329 32.42 191.989 32.74C191.289 33.38 190.989 34.58 190.989 36.36ZM188.829 36.36C188.829 33.94 189.449 32.16 190.709 31.18C191.409 30.68 192.269 30.4 193.329 30.4C194.249 30.4 195.049 30.6 195.689 31.04C197.089 31.96 197.829 33.82 197.829 36.36C197.829 38.9 197.109 40.72 195.749 41.64C195.089 42.08 194.289 42.3 193.329 42.3C192.309 42.3 191.449 42.04 190.769 41.54C189.469 40.6 188.829 38.82 188.829 36.36ZM203.009 25.04V32.44H205.849V34.34H203.009V43.18H200.829V25.04H203.009ZM211.228 38.06C210.508 39.66 208.988 41.12 207.148 41.96V39.94C208.968 38.84 210.148 37 210.148 32.98V25.26H212.288V32.98C212.288 37.02 213.468 38.82 215.308 39.96V41.96C213.468 41.14 211.968 39.64 211.228 38.06ZM218.928 42.96H216.808V33.52H214.068V31.64H216.808V25.16H218.928V42.96ZM222.928 43.18H220.808V25.04H222.928V43.18ZM227.287 30.58C227.287 28.92 227.947 27.64 229.067 26.74C230.407 25.66 232.407 25.16 234.807 25.16C237.227 25.16 239.227 25.66 240.567 26.74C241.667 27.64 242.347 28.92 242.347 30.58C242.347 32.28 241.667 33.54 240.567 34.44C240.187 34.74 239.747 35 239.267 35.22V40.5H242.847V42.38H226.747V40.5H230.447V35.26C229.927 35.04 229.467 34.76 229.067 34.44C227.947 33.54 227.287 32.28 227.287 30.58ZM237.087 35.84C236.387 35.96 235.627 36.02 234.807 36.02C234.027 36.02 233.287 35.96 232.607 35.86V40.5H237.087V35.84ZM229.467 30.58C229.467 31.64 229.867 32.42 230.587 33C231.527 33.78 233.007 34.12 234.807 34.12C236.607 34.12 238.107 33.78 239.047 33C239.767 32.42 240.167 31.64 240.167 30.58C240.167 29.56 239.767 28.76 239.047 28.16C238.107 27.4 236.607 27.06 234.807 27.06C233.007 27.06 231.527 27.4 230.587 28.16C229.867 28.76 229.467 29.56 229.467 30.58Z" fill="black"/>
<path d="M58.2138 26.86V29.24H47.7738V26.86H51.6138V24.4H54.3538V26.86H58.2138ZM48.5138 36.34C48.5138 33.86 49.1338 31.96 50.4938 30.98C51.1938 30.48 52.0338 30.22 53.0938 30.22C54.1338 30.22 54.9938 30.48 55.6738 30.98C57.0538 31.96 57.6738 33.86 57.6738 36.34C57.6738 38.82 57.0538 40.74 55.6738 41.72C54.9938 42.2 54.1338 42.46 53.0938 42.46C52.0338 42.46 51.1938 42.2 50.4938 41.72C49.1338 40.74 48.5138 38.82 48.5138 36.34ZM51.2338 36.34C51.2338 38.04 51.4338 39.16 52.0538 39.72C52.3138 39.96 52.6538 40.08 53.0938 40.08C53.5138 40.08 53.8538 39.96 54.1138 39.72C54.7338 39.16 54.9538 38.04 54.9538 36.34C54.9538 34.66 54.7338 33.52 54.1138 32.96C53.8538 32.72 53.5138 32.6 53.0938 32.6C52.6538 32.6 52.3138 32.72 52.0538 32.96C51.4338 33.52 51.2338 34.66 51.2338 36.34ZM62.9338 32.22H65.6938V34.58H62.9338V43.3H60.1938V24.94H62.9338V32.22ZM75.713 42.08H67.713V25.16H70.433V39.7H76.253C77.733 39.7 78.813 39.46 79.393 38.96V24.94H82.133V32.22H84.893V34.58H82.133V43.3H79.393V41.18C78.793 41.78 77.453 42.08 75.713 42.08ZM87.1722 28.8C87.1722 27.68 87.5922 26.86 88.3122 26.28C89.6722 25.22 92.0322 24.94 94.6122 24.94C97.2122 24.94 99.5522 25.22 100.912 26.28C101.632 26.86 102.052 27.68 102.052 28.8C102.052 29.9 101.632 30.72 100.912 31.3C99.5522 32.36 97.2122 32.64 94.6122 32.64C92.0322 32.64 89.6722 32.36 88.3122 31.3C87.5922 30.72 87.1722 29.9 87.1722 28.8ZM89.9122 28.8C89.9122 29.18 90.0722 29.46 90.3922 29.68C91.1122 30.2 92.5722 30.36 94.6122 30.36C96.6522 30.36 98.1322 30.2 98.8322 29.68C99.1522 29.46 99.3122 29.18 99.3122 28.8C99.3122 28.4 99.1522 28.12 98.8322 27.9C98.1322 27.38 96.6522 27.22 94.6122 27.22C92.5722 27.22 91.1122 27.38 90.3922 27.9C90.0722 28.12 89.9122 28.4 89.9122 28.8ZM86.3322 34.1H102.852V36.48H86.3322V34.1ZM90.2322 40.98H102.012V43.38H87.4922V37.84H90.2322V40.98ZM108.571 24.4H111.271V26.02H114.011V28.24H105.671V26.02H108.571V24.4ZM106.011 32.34C106.011 31.3 106.411 30.38 107.131 29.76C107.791 29.18 108.731 28.84 109.871 28.84C111.011 28.84 111.951 29.18 112.611 29.76C113.351 30.38 113.751 31.3 113.751 32.34C113.751 33.4 113.351 34.32 112.611 34.94C111.951 35.52 111.011 35.86 109.871 35.86C108.731 35.86 107.791 35.52 107.131 34.94C106.411 34.32 106.011 33.4 106.011 32.34ZM108.531 32.34C108.531 32.72 108.651 33.04 108.871 33.28C109.111 33.56 109.451 33.74 109.871 33.74C110.311 33.74 110.651 33.56 110.871 33.28C111.091 33.04 111.231 32.72 111.231 32.34C111.231 31.96 111.091 31.64 110.871 31.4C110.651 31.12 110.311 30.96 109.871 30.96C109.451 30.96 109.111 31.12 108.871 31.4C108.651 31.64 108.531 31.96 108.531 32.34ZM118.631 36.14V31.66H117.211V35.8H114.631V25.04H117.211V29.26H118.631V24.94H121.251V36.14H118.631ZM107.011 40.14C107.011 38.96 107.591 38.14 108.551 37.58C109.891 36.82 111.991 36.56 114.351 36.56C116.711 36.56 118.791 36.82 120.151 37.58C121.111 38.14 121.691 38.96 121.691 40.14C121.691 41.3 121.111 42.12 120.151 42.68C118.791 43.44 116.711 43.7 114.351 43.7C111.991 43.7 109.891 43.44 108.551 42.68C107.591 42.12 107.011 41.3 107.011 40.14ZM109.751 40.14C109.751 40.44 109.931 40.66 110.291 40.86C111.031 41.24 112.511 41.4 114.351 41.4C116.191 41.4 117.671 41.24 118.411 40.86C118.751 40.66 118.951 40.44 118.951 40.14C118.951 39.84 118.751 39.6 118.411 39.4C117.671 39.02 116.191 38.86 114.351 38.86C112.511 38.86 111.031 39.02 110.291 39.4C109.931 39.6 109.751 39.84 109.751 40.14Z" fill="#148071"/>
</svg>
