<svg width="271" height="45" viewBox="0 0 271 45" fill="none" xmlns="http://www.w3.org/2000/svg">
<path d="M35.9334 1.26V9.46H48.1134V11.36H41.9934V16.5H48.9134V18.38H32.8134V16.5H39.8334V11.36H33.7534V1.26H35.9334ZM67.6127 2.42V4.26H52.5127V2.42H58.9327V0.399999H61.1527V2.42H67.6127ZM55.1327 8.9C55.1327 9.38 55.4327 9.74 55.9727 10C56.8327 10.42 58.3127 10.58 60.0527 10.58C61.6127 10.58 63.0327 10.46 63.9327 10.1C64.5927 9.84 64.9927 9.44 64.9927 8.9C64.9927 8.4 64.6727 8.04 64.1327 7.78C63.2327 7.36 61.7327 7.2 60.0527 7.2C58.3727 7.2 56.9327 7.38 56.0327 7.78C55.4527 8.04 55.1327 8.4 55.1327 8.9ZM52.9527 8.9C52.9527 7.68 53.6327 6.82 54.8127 6.26C56.0927 5.64 57.9327 5.36 60.0527 5.36C62.1527 5.36 64.0127 5.62 65.2927 6.24C66.4527 6.8 67.1527 7.68 67.1527 8.9C67.1527 10.12 66.4327 11 65.2327 11.56C63.9527 12.16 62.1327 12.44 60.0527 12.44C57.9127 12.44 56.0527 12.16 54.7727 11.52C53.6127 10.94 52.9527 10.08 52.9527 8.9ZM52.0127 15.58V13.68H68.1127V15.58H61.1127V19.48H58.9527V15.58H52.0127ZM71.4919 9.62C71.4919 5.26 71.8719 3.04 72.9119 1.9C73.4519 1.34 74.1519 1.04 75.1119 1.04C76.0719 1.04 76.7919 1.34 77.3119 1.9C78.2519 2.92 78.6519 4.78 78.7319 8.24H80.7119V1.16H82.8319V18.96H80.7119V10.14H78.7519C78.7119 14.16 78.3319 16.24 77.3119 17.34C76.7919 17.88 76.0719 18.16 75.1119 18.16C74.1519 18.16 73.4519 17.88 72.9119 17.34C71.8719 16.2 71.4919 13.98 71.4919 9.62ZM73.5719 9.62C73.5719 13.36 73.7319 15.16 74.2919 15.9C74.4919 16.18 74.7719 16.3 75.1119 16.3C75.4719 16.3 75.7319 16.18 75.9519 15.9C76.5119 15.16 76.6519 13.36 76.6519 9.62C76.6519 5.88 76.5119 4.06 75.9519 3.34C75.7319 3.06 75.4719 2.92 75.1119 2.92C74.7719 2.92 74.4919 3.06 74.2919 3.34C73.7319 4.06 73.5719 5.88 73.5719 9.62ZM86.5919 19.18H84.4719V1.04H86.5919V19.18ZM105.571 3.28H93.5311V9.44H105.711V11.34H99.5911V16.5H106.511V18.38H90.4111V16.5H97.4311V11.34H91.3511V1.36H105.571V3.28ZM115.951 3.62C115.951 2.76 116.411 2.14 117.111 1.7C118.051 1.16 119.451 0.919999 120.951 0.919999C122.431 0.919999 123.831 1.16 124.771 1.7C125.491 2.14 125.911 2.76 125.911 3.62C125.911 4.44 125.491 5.06 124.771 5.5C123.831 6.06 122.431 6.28 120.951 6.28C119.451 6.28 118.051 6.06 117.111 5.5C116.411 5.06 115.951 4.44 115.951 3.62ZM118.031 3.62C118.031 3.88 118.191 4.1 118.471 4.26C118.971 4.58 119.871 4.68 120.951 4.68C121.991 4.68 122.911 4.58 123.431 4.26C123.711 4.1 123.831 3.88 123.831 3.62C123.831 3.34 123.711 3.12 123.431 2.96C122.911 2.62 121.991 2.52 120.951 2.52C119.871 2.52 118.971 2.62 118.471 2.96C118.191 3.12 118.031 3.34 118.031 3.62ZM130.571 11.44H128.391V10.96H124.431V9.38H128.391V1.04H130.571V11.44ZM121.251 8.82V11.42H119.071V8.82H115.271V7.12H123.511C124.971 7.12 126.251 7.06 127.251 6.78V8.38C126.331 8.68 125.011 8.82 123.571 8.82H121.251ZM119.191 17.78H130.791V19.36H117.011V14.98H128.391V13.72H117.011V12.14H130.571V16.54H119.191V17.78ZM147.49 4.58V3.16H135.59V1.26H149.67V4.5C149.67 5.52 149.55 6.68 149.33 7.48H147.21C147.41 6.68 147.49 5.56 147.49 4.58ZM134.51 10.46V8.56H150.85V10.46H134.51ZM135.71 11.92H137.87V13.82H147.49V11.92H149.67V19.36H135.71V11.92ZM147.49 17.54V15.66H137.87V17.54H147.49ZM154.229 5.22V3.34H158.029V0.52H160.229V3.34H164.069V5.22H160.229V8.16C160.229 13 162.129 14.96 164.229 15.96V17.96C161.969 17.18 160.009 15.42 159.129 13.5C158.249 15.42 156.269 17.2 154.029 17.96V15.96C156.089 14.98 158.029 13 158.029 8.16V5.22H154.229ZM168.929 1.04V19.18H166.749V10.64H162.749V8.72H166.749V1.04H168.929ZM180.728 11.14H173.508V5.26H179.608V3.08H173.508V1.26H181.768V7.08H175.668V9.34H180.828C182.008 9.34 183.108 9.26 184.028 8.94V10.66C183.128 11.02 181.968 11.14 180.728 11.14ZM182.628 7V5.1H185.988V1.04H188.168V11.84H185.988V7H182.628ZM174.608 19.36V12.96H188.168V19.36H174.608ZM185.988 14.82H176.788V17.52H185.988V14.82ZM205.428 1.36V17.96H198.548V1.36H205.428ZM200.648 16.12H203.328V3.22H200.648V16.12ZM213.428 19.18H211.308V10.16H209.268V18.96H207.188V1.16H209.268V8.26H211.308V1.04H213.428V19.18ZM225.627 9.2H217.487V1.26H226.347V3.14H219.667V7.34H226.187C227.827 7.34 228.947 7.1 229.727 6.54V1.04H231.907V4.44H234.547V6.36H231.907V9.86H229.727V8.3C228.967 8.92 227.667 9.2 225.627 9.2ZM220.687 16.02V17.6H232.127V19.36H218.527V14.3H229.727V12.68H218.527V10.94H231.907V16.02H220.687ZM1.17844 28.52V26.62H4.77844V24.52H6.95844V26.62H10.5584V28.52H6.95844C7.07844 31.3 8.69844 32.74 10.8784 33.22V35.16C8.71844 34.76 6.85844 33.64 5.91844 32.08C4.95844 33.66 3.07844 35.04 0.858438 35.38V33.46C3.09844 32.98 4.67844 31.4 4.77844 28.52H1.17844ZM15.5984 25.04V29.22H18.2384V31.12H15.5984V35.38H13.4184V25.04H15.5984ZM8.85844 41.04C7.53844 42.5 4.93844 43.34 1.67844 43.36V41.5C5.05844 41.48 7.77844 40.38 7.77844 38.46V38.4H2.21844V36.54H15.5984V38.4H9.93844V38.46C9.93844 40.38 12.6784 41.46 16.0584 41.5V43.36C12.7384 43.3 10.1584 42.5 8.85844 41.04ZM27.6177 33.62C27.6177 30.74 27.3977 28.64 26.6777 27.68C26.2977 27.18 25.7377 26.92 25.0977 26.92C24.4377 26.92 23.8777 27.18 23.5177 27.68C22.7577 28.64 22.5777 30.74 22.5777 33.62C22.5777 36.5 22.7577 38.6 23.5177 39.58C23.8777 40.04 24.4377 40.3 25.0977 40.3C25.7377 40.3 26.2977 40.04 26.6777 39.58C27.3977 38.6 27.6177 36.5 27.6177 33.62ZM20.4177 33.62C20.4177 30.34 20.7377 27.88 21.8777 26.46C22.6377 25.54 23.7377 25.04 25.0977 25.04C26.4377 25.04 27.5577 25.54 28.2977 26.46C29.4577 27.88 29.7777 30.34 29.7777 33.62C29.7777 36.9 29.4577 39.36 28.2977 40.78C27.5577 41.7 26.4377 42.16 25.0977 42.16C23.7377 42.16 22.6377 41.7 21.8777 40.78C20.7377 39.36 20.4177 36.9 20.4177 33.62ZM34.7977 25.04V32.44H37.6377V34.34H34.7977V43.18H32.6177V25.04H34.7977ZM39.8769 30.58C39.8769 28.92 40.5369 27.64 41.6569 26.74C42.9969 25.66 44.9969 25.16 47.3969 25.16C49.8169 25.16 51.8169 25.66 53.1569 26.74C54.2569 27.64 54.9369 28.92 54.9369 30.58C54.9369 32.28 54.2569 33.54 53.1569 34.44C52.0369 35.34 50.4369 35.84 48.5169 35.98V40.5H55.4369V42.38H39.3369V40.5H46.3569V35.98C44.4169 35.86 42.7969 35.36 41.6569 34.44C40.5369 33.54 39.8769 32.28 39.8769 30.58ZM42.0569 30.58C42.0569 31.64 42.4569 32.42 43.1769 33C44.1169 33.78 45.5969 34.12 47.3969 34.12C49.1969 34.12 50.6969 33.78 51.6369 33C52.3569 32.42 52.7569 31.64 52.7569 30.58C52.7569 29.56 52.3569 28.76 51.6369 28.16C50.6969 27.4 49.1969 27.06 47.3969 27.06C45.5969 27.06 44.1169 27.4 43.1769 28.16C42.4569 28.76 42.0569 29.56 42.0569 30.58ZM61.7761 25.16V29.6H73.6761V31.48H59.6161V25.16H61.7761ZM58.4161 35.78V33.9H74.7561V35.78H58.4161ZM61.7761 37.48V41.38H73.8961V43.26H59.6161V37.48H61.7761ZM83.5956 30.16C83.5956 28.32 84.1556 26.9 85.1156 26.02C85.9156 25.3 87.0156 24.92 88.3356 24.92C89.6956 24.92 90.7756 25.3 91.5756 26.02C92.5556 26.9 93.0956 28.32 93.0956 30.16C93.0956 32.02 92.5556 33.44 91.5756 34.32C90.7756 35.04 89.6956 35.42 88.3356 35.42C87.0156 35.42 85.9156 35.04 85.1156 34.32C84.1556 33.44 83.5956 32.02 83.5956 30.16ZM85.7156 30.16C85.7156 31.38 86.0156 32.28 86.5556 32.86C86.9956 33.3 87.5956 33.54 88.3356 33.54C89.0956 33.54 89.6956 33.3 90.1356 32.86C90.6756 32.28 90.9756 31.38 90.9756 30.16C90.9756 28.96 90.6756 28.04 90.1356 27.48C89.6956 27.04 89.0956 26.8 88.3356 26.8C87.5956 26.8 86.9956 27.04 86.5556 27.48C86.0156 28.04 85.7156 28.96 85.7156 30.16ZM98.2156 25.04V29.98H100.856V31.9H98.2156V37.74H96.0356V25.04H98.2156ZM86.9956 37.1V41.38H98.5556V43.26H84.8356V37.1H86.9956ZM103.235 27.14V25.26H112.595V27.14H108.995V27.82C108.995 30.9 110.675 32.36 112.935 32.86V34.78C110.755 34.4 108.895 33.26 107.955 31.72C107.015 33.28 105.115 34.66 102.915 35.02V33.08C105.215 32.58 106.835 30.96 106.835 27.82V27.14H103.235ZM117.895 35.38H115.715V30.74H111.975V28.88H115.715V25.04H117.895V35.38ZM111.195 43.6C109.115 43.6 107.055 43.32 105.675 42.46C104.715 41.86 104.095 40.96 104.095 39.74C104.095 38.52 104.715 37.62 105.675 37.02C107.055 36.18 109.115 35.88 111.195 35.88C113.275 35.88 115.355 36.18 116.715 37.02C117.675 37.62 118.315 38.52 118.315 39.74C118.315 40.96 117.675 41.86 116.715 42.46C115.355 43.32 113.275 43.6 111.195 43.6ZM111.195 37.74C109.555 37.74 107.955 37.94 107.035 38.5C106.555 38.82 106.255 39.22 106.255 39.74C106.255 40.26 106.555 40.66 107.035 40.96C107.955 41.52 109.555 41.74 111.195 41.74C112.855 41.74 114.455 41.52 115.355 40.96C115.835 40.66 116.135 40.26 116.135 39.74C116.135 39.22 115.835 38.82 115.355 38.5C114.455 37.94 112.855 37.74 111.195 37.74ZM122.174 44.56V43.46C123.054 43.42 123.474 42.94 123.474 41.98H122.254V39.34H124.714V42.18C124.714 43.62 123.794 44.44 122.174 44.56ZM218.364 32.64V27.28H211.384V25.36H220.524V32.32C220.524 33.96 220.364 35.94 220.084 37.16H217.944C218.204 35.94 218.364 34.16 218.364 32.64ZM213.384 40.28V32.02H215.544V40.28H219.584C221.204 40.28 222.464 39.96 223.204 39.34V25.04H225.384V32.44H228.224V34.34H225.384V43.18H223.204V41.14C222.464 41.82 220.984 42.16 219.164 42.16H210.784V40.28H213.384ZM245.683 28.04H235.363V26.26H239.503V24.52H241.663V26.26H245.683V28.04ZM238.003 32.34C238.003 32.82 238.243 33.2 238.623 33.48C239.103 33.82 239.763 34 240.543 34C241.363 34 242.063 33.8 242.543 33.44C242.883 33.16 243.083 32.8 243.083 32.34C243.083 31.88 242.863 31.48 242.503 31.2C242.023 30.84 241.323 30.68 240.543 30.68C239.783 30.68 239.103 30.86 238.623 31.2C238.243 31.48 238.003 31.88 238.003 32.34ZM235.903 32.34C235.903 31.28 236.403 30.44 237.203 29.86C238.043 29.26 239.223 28.96 240.543 28.96C241.903 28.96 243.063 29.28 243.863 29.86C244.683 30.44 245.163 31.3 245.163 32.34C245.163 33.44 244.683 34.26 243.823 34.84C243.003 35.4 241.863 35.7 240.543 35.7C239.183 35.7 237.983 35.38 237.143 34.76C236.383 34.18 235.903 33.38 235.903 32.34ZM250.403 25.04V29.48H253.043V31.38H250.403V35.88H248.223V25.04H250.403ZM237.023 43.36V37.02H250.403V43.36H237.023ZM248.223 38.92H239.183V41.52H248.223V38.92ZM270.522 43.18H268.422V25.04H270.522V43.18ZM263.102 25.36V32.22H264.862V25.14H266.942V42.96H264.862V34.12H263.102V35.04C263.102 39.3 261.802 41.6 258.862 42.64V40.64C260.242 39.86 261.042 38.36 261.042 34.88V27.28H259.202V33.96C259.202 38.32 258.022 40.44 255.002 41.6V39.6C256.462 38.78 257.102 37.44 257.102 33.82L257.122 27.28H255.102V25.36H263.102Z" fill="black"/>
<path d="M144.007 26.86V29.24H133.567V26.86H137.407V24.4H140.147V26.86H144.007ZM134.307 36.34C134.307 33.86 134.927 31.96 136.287 30.98C136.987 30.48 137.827 30.22 138.887 30.22C139.927 30.22 140.787 30.48 141.467 30.98C142.847 31.96 143.467 33.86 143.467 36.34C143.467 38.82 142.847 40.74 141.467 41.72C140.787 42.2 139.927 42.46 138.887 42.46C137.827 42.46 136.987 42.2 136.287 41.72C134.927 40.74 134.307 38.82 134.307 36.34ZM137.027 36.34C137.027 38.04 137.227 39.16 137.847 39.72C138.107 39.96 138.447 40.08 138.887 40.08C139.307 40.08 139.647 39.96 139.907 39.72C140.527 39.16 140.747 38.04 140.747 36.34C140.747 34.66 140.527 33.52 139.907 32.96C139.647 32.72 139.307 32.6 138.887 32.6C138.447 32.6 138.107 32.72 137.847 32.96C137.227 33.52 137.027 34.66 137.027 36.34ZM148.727 32.22H151.487V34.58H148.727V43.3H145.987V24.94H148.727V32.22ZM161.506 42.08H153.506V25.16H156.226V39.7H162.046C163.526 39.7 164.606 39.46 165.186 38.96V24.94H167.926V32.22H170.686V34.58H167.926V43.3H165.186V41.18C164.586 41.78 163.246 42.08 161.506 42.08ZM172.965 28.8C172.965 27.68 173.385 26.86 174.105 26.28C175.465 25.22 177.825 24.94 180.405 24.94C183.005 24.94 185.345 25.22 186.705 26.28C187.425 26.86 187.845 27.68 187.845 28.8C187.845 29.9 187.425 30.72 186.705 31.3C185.345 32.36 183.005 32.64 180.405 32.64C177.825 32.64 175.465 32.36 174.105 31.3C173.385 30.72 172.965 29.9 172.965 28.8ZM175.705 28.8C175.705 29.18 175.865 29.46 176.185 29.68C176.905 30.2 178.365 30.36 180.405 30.36C182.445 30.36 183.925 30.2 184.625 29.68C184.945 29.46 185.105 29.18 185.105 28.8C185.105 28.4 184.945 28.12 184.625 27.9C183.925 27.38 182.445 27.22 180.405 27.22C178.365 27.22 176.905 27.38 176.185 27.9C175.865 28.12 175.705 28.4 175.705 28.8ZM172.125 34.1H188.645V36.48H172.125V34.1ZM176.025 40.98H187.805V43.38H173.285V37.84H176.025V40.98ZM194.364 24.4H197.064V26.02H199.804V28.24H191.464V26.02H194.364V24.4ZM191.804 32.34C191.804 31.3 192.204 30.38 192.924 29.76C193.584 29.18 194.524 28.84 195.664 28.84C196.804 28.84 197.744 29.18 198.404 29.76C199.144 30.38 199.544 31.3 199.544 32.34C199.544 33.4 199.144 34.32 198.404 34.94C197.744 35.52 196.804 35.86 195.664 35.86C194.524 35.86 193.584 35.52 192.924 34.94C192.204 34.32 191.804 33.4 191.804 32.34ZM194.324 32.34C194.324 32.72 194.444 33.04 194.664 33.28C194.904 33.56 195.244 33.74 195.664 33.74C196.104 33.74 196.444 33.56 196.664 33.28C196.884 33.04 197.024 32.72 197.024 32.34C197.024 31.96 196.884 31.64 196.664 31.4C196.444 31.12 196.104 30.96 195.664 30.96C195.244 30.96 194.904 31.12 194.664 31.4C194.444 31.64 194.324 31.96 194.324 32.34ZM204.424 36.14V31.66H203.004V35.8H200.424V25.04H203.004V29.26H204.424V24.94H207.044V36.14H204.424ZM192.804 40.14C192.804 38.96 193.384 38.14 194.344 37.58C195.684 36.82 197.784 36.56 200.144 36.56C202.504 36.56 204.584 36.82 205.944 37.58C206.904 38.14 207.484 38.96 207.484 40.14C207.484 41.3 206.904 42.12 205.944 42.68C204.584 43.44 202.504 43.7 200.144 43.7C197.784 43.7 195.684 43.44 194.344 42.68C193.384 42.12 192.804 41.3 192.804 40.14ZM195.544 40.14C195.544 40.44 195.724 40.66 196.084 40.86C196.824 41.24 198.304 41.4 200.144 41.4C201.984 41.4 203.464 41.24 204.204 40.86C204.544 40.66 204.744 40.44 204.744 40.14C204.744 39.84 204.544 39.6 204.204 39.4C203.464 39.02 201.984 38.86 200.144 38.86C198.304 38.86 196.824 39.02 196.084 39.4C195.724 39.6 195.544 39.84 195.544 40.14Z" fill="#148071"/>
</svg>
